<?xml version="1.0" encoding="UTF-8"?>
<svg version="1.1" viewBox="0 0 2000 2000" width="500" height="500" xmlns="http://www.w3.org/2000/svg">
<path transform="translate(848,157)" d="m0 0h63l35 1 58 1 55 2 94 6 53 5 51 6 44 7 33 6 41 9 31 8 36 11 38 13 29 12 18 8 16 7 19 10 25 14 21 13 12 8 16 11 17 13 10 8 9 7v2l4 2 12 11 8 7 20 20 7 8 11 13 13 18 16 24 10 16 10 18 14 28 15 36 10 28 8 27 8 37 6 44 2 19v40l-5 38-4 22-7 25-9 24-10 21-10 17-10 15-10 14-13 16-9 10-11 12-18 18-8 7-11 10-14 11-15 12-16 12-16 11-14 10-5 3-1 103-4-2-1-2v-93l-15 9-11 6-1 63v30l1 40 6-4 8-7 6-1 4 2 1-2 1-25 1-9 4-1 1 29 14-7 20-4 16-2h27l18 3 15 4 18 8 16 10 10 8 15 15 10 14 8 16 5 13 2 10v34l-4 20-8 24-11 26-9 19-12 22-10 15-7 6-2 7-1 185-4 7-16 16-7 8-44 44 1 5 1 2v6l-7 8-7 2-11-2-1 115-1 1h-485l-1-1v-69h-64l-8-3-6-7-3-9-2-33-10 3-29 7-25 5-24 3 2 9 5 40 3 16-5 1-3-3-5-28-4-30v-4l-20 2-44 2h-34l-4-1 3 12 6 5 28 10 36 9 13 4 9 6 3 7v5l-4 5-8 4-13 2-21 1h-85l-28-1-5-6-8-24-4-18 1-4 3-2-3-9v-3l-87-9-27-4-47-8-2-1 13 37 9 25 4 10v5l-5 1-4-6-20-56-6-14v-4l-27-5-36-8-36-10-36-12-7-3-3 15-9 38-8 34-6 23-3 7-3 1-3-3 4-19 18-75 5-21 2-6-10-2-25-13-18-12-9-7-14-12-16-16-11-14-10-15-10-18-10-24-6-21-3-13-3-36v-31l3-28v-9l-6-8-8-7-5-4-14-16-12-16-9-16-5-10-2-1 5 28 5 33 9 56 6 36 5 32 7 46 3 18 5 33 4 21 6 40 8 52 8 50 5 27-1 4h-6l-2-5-7-44-8-52-6-37-12-72-4-29-5-30-4-26-5-27-5-34-6-39-5-33-6-39-6-29-4 21-3 19-3 24-5 35-4 27-6 38-9 65-7 48-5 35-7 50-5 30-5 36-6 45-4 21-1 2h-5l-1-1 1-12 4-29 7-47 5-37 7-48 8-53 8-57 7-48 11-77 6-36 5-38 3-20 1-10h-40l-1-3 1-18 40-1v-12l-6-38-3-36v-68l2-26 8-36 9-24 12-20 10-13 10-10 11-9 14-8 10-4h2v-3l-18-2-9-5-20-14-13-10-15-13-7-7-8-7-16-17-9-11-14-18-14-21-10-17-12-23-10-22-9-24-8-26-6-27-5-34-2-18-1-15v-24l4-39 5-35 8-35 12-38 10-25 11-24 10-19 9-15 12-19 20-26 7-7 7-8 6-7h2l2-4 7-7 8-7 18-14 18-12 15-9 16-8 22-10 27-11 37-13 41-13 39-10 26-6 44-9 58-9 59-6 24-2 41-2zm-160 908-3 3v9l7 3 9-2-1-7-5-5zm217 7-1 3 3 18-1 28-3 29-3 26v12l196 1 11 1 8 5 3 1 2 5 3 6 1 103 5 5 11 7 16 13 13 11 14 12 13 12 10 11 8 11 1 1 23 1h154l54-1 2-1 1-5-8-8-3-6 1-5 4-6 4-3 15 1 8-7 9-14 8-15 14-24 12-21 10-15 11-12 10-10 15-11 5-5v-130l-7 4-10 8-17 10-3 3-1 34h-2l-1-24-2-2-11 8-17 14-8 7-15 14-11 11-7 8-7 7-9 11-12 15-19 28-7 10-10 13-9 9-13 8-7 3-5 1h-21l-10-4-10-8-8-7-7-8-9-10-11-14-11-13-11-14-11-13-7-8-14-14-6-7-8-7-13-11-17-12-22-13-22-11-28-11-33-10-41-10-47-8-46-6zm683 8-16 8-3 3v125l1 3 5-1 11-7 5-3 1-4v-124zm-689 113-1 7-1 27h46l-4-2-10-3-10-1 3-1h12l12 4 10 5 36 2 90 1 8 3 7 6 3 7 1 17v30l8 5 9 5 1-10v-85l-3-9-5-6-2-1-10-1zm131 43-29 1-1 4 4 3 9 2 14 1 34 1 9 3 5 6 4 9 1 14 5 4 12 6 1-22v-17l-4-8-6-5-9-2zm21 14-10 1v3l9 6 12 7 10 8h3v-12l-5-8-5-3-11-2zm704 210-7 10-6 9-10 13-12 14-11 13-3 3v2l-3 1-5 6-8 7-11 10-11 7-1 1-1 43v105l2 2 5-2h14l66-66 4-6v-172zm-580 228-12 7-6 3v3l18 2 4-2v-10l-2-3zm-45 17-6 5-18 6-5 2v31l1 9 6 8 7 3h60l4-2v-59l-1-1-12-1z" fill="#ECE7FD"/>
<path transform="translate(578,710)" d="m0 0h11l10 5 11 12 11-2h11l10 6 7 11 2 7v9l-4 10-4 5-7 5-7 1v11l-6 25-5 15-8 16-4 6-9 10-8 5-4 1-3 9-2 3-2 7-3 1v3h7v1h-8l-1 8v12l4 10 1 5-6 4-13 3h-15l-12-3-13-6-12-7-16-15-9-10-3-4-11 1-24 8-19 10-12 9-12 11-11 12-7 11-6 11-14 42-7 34-5 19-4 17-7 28-6 26-4 13v9l2 6 2 2 1 7 10 23 18 36 6 7v2l4 1 5-2 13-1h13l30-2 37-4 34-2h15l1-11 5-33 4-30 7-44 4-12 5-3 163-1 2-4 13-12 5-4h3l-1 19h76l2-2 6-16 2-11h2l1-12v-21l-3-12v-3h-2v-6h23l12 3 9 4v2l5 2 13 10 5 4 1 3 3 3v2h2l9 15 3 8v3h2l4 16 2 13-1 28-3 29-3 26-3 39-2 12-4 27-2 16h93v22l-41 1 3 27 1 2 1 11 2 8 3 25 1 1 3 25 5 33 2 10 2 16 2 10 2 13 2 17 3 16 8 53 1 11 2 8 4 32 1 1 7 46 3 25 2 8 3 26 5 31 5 40 3 16-5 1-3-3-5-28-4-30v-4l-20 2-44 2h-34l-4-1 3 12 6 5 28 10 36 9 13 4 9 6 3 7v5l-4 5-8 4-13 2-21 1h-85l-28-1-5-6-8-24-4-18 1-4 3-2-3-9v-3l-87-9-27-4-47-8-2-1 13 37 9 25 4 10v5l-5 1-4-6-20-56-6-14v-4l-27-5-36-8-36-10-36-12-7-3-3 15-9 38-8 34-6 23-3 7-3 1-3-3 4-19 18-75 5-21 2-6-10-2-25-13-18-12-9-7-14-12-16-16-11-14-10-15-10-18-10-24-6-21-3-13-3-36v-31l3-28v-9l-6-8-8-7-5-4-14-16-12-16-9-16-5-10-2-1 5 28 5 33 9 56 6 36 5 32 7 46 3 18 5 33 4 21 6 40 8 52 8 50 5 27-1 4h-6l-2-5-7-44-8-52-6-37-12-72-4-29-5-30-4-26-5-27-5-34-6-39-5-33-6-39-6-29-4 21-3 19-3 24-5 35-4 27-6 38-9 65-7 48-5 35-7 50-5 30-5 36-6 45-4 21-1 2h-5l-1-1 1-12 4-29 7-47 5-37 7-48 8-53 8-57 7-48 11-77 6-36 5-38 3-20 1-10h-40l-1-3 1-18 40-1v-12l-6-38-3-36v-68l2-26 8-36 9-24 12-20 10-13 10-10 11-9 14-8 13-4 9-1v-3l7-3 7-14 11-14 5-5 5-6 13-10 15-9 13-6 20-7 18-2 12-6 6-5 6-8 7-16 6-18v-5l-3-1-1-21-5-13-4-5v-8l4-5v-9l-1-4v-7l5-5 9-6v-15l5-8 9-5 27-1z" fill="#604AB7"/>
<path transform="translate(900,1188)" d="m0 0h196l11 1 8 5 5 5 4 8 1 103 4 4 11 7 16 13 13 11 14 12 13 12 11 12 8 11 23 1 427 1 1 1 1 44v40l1 6-1 1-1 82 1 1v135h4l2-1h14l65-65 4-6v-172l-1-21-1-8-5-4v-2h-2l-7-8-4-6-36-36v-2l-4-2v-2l-4-2-3-4-5-2-4-5-5-3-4-6-37-37-3-1-1-5h-2l-1-2v-92l1-7 1-9h2l1 102 2 7 10 10 1 3 8 7 103 103 5 3 3 10-2 7-1 185-4 7-16 16-7 8-44 44 1 5 1 2v6l-7 8-7 2-11-2-1 115-1 1h-485l-1-1v-69h-64l-8-3-6-7-3-9-2-33-10 3-29 7-25 5-24 3-3-15-3-21-2-18-2-9-4-31-5-33-1-1-4-32-2-8-3-24-8-53-1-3-2-17-2-13-3-16-2-17-3-15-4-27-2-19-1-1-3-25-2-8-1-11-2-10-1-10v-9l12-1h29v-22h-93l1-16 5-36 2-3-1 12 42-1-10-3-10-1-1-2 4-1h12l12 4 10 5 36 2 90 1 8 3 8 7 3 7 1 17v30l15 9 1-9v-85l-3-9-4-5-2-1-10-1-200-1zm130 48-29 1-1 4 4 3 9 2 14 1 34 1 9 3 5 6 4 9 1 14 5 4 12 6 1-22v-17l-4-8-6-5-9-2zm21 14-10 1v3l9 6 12 7 10 8h3v-12l-5-8-5-3-11-2zm124 438-12 7-6 3v3l18 2 4-2v-10l-2-3zm-45 17-6 5-18 6-5 2v31l1 9 6 8 7 3h60l4-2v-59l-1-1-12-1z" fill="#A992FA"/>
<path transform="translate(281,1292)" d="m0 0h506v1l-51 1h-131l-11-1 11 14 7 10 8 14 9 21 5 18 3 19v14l-3 17-9 24 55-1 34-3 13-1 3 9 5 27 2 6 4 17 3 16 4 14 1 8 3 9 2 16h2l16 65 1 12h2l19 75 3 9 5 1 85-11 17-2 1-6v-74l-2-41-3-37 1-13 6-43 1-3 3-26 3-18 3-26 3-15 8-4 4-5-1-6-8-5 1-15 7-49 2-16 2-1 4 22 4 25 1 13 2 8 7 47 2 17 2 8 2 19 2 8 14 92 11 72 1 13 1 1 11 73 1 15-19 2-44 2h-34l-4-1 3 12 6 5 28 10 36 9 13 4 9 6 3 7v5l-4 5-8 4-13 2-21 1h-85l-28-1-5-6-8-24-4-18 1-4 3-2-3-9v-3l-87-9-27-4-47-8-2-1 13 37 9 25 4 10v5l-5 1-4-6-20-56-6-14v-4l-27-5-36-8-36-10-36-12-7-3-3 15-9 38-8 34-6 23-3 7-3 1-3-3 4-19 18-75 5-21 2-6-10-2-25-13-18-12-9-7-14-12-16-16-11-14-10-15-10-18-10-24-6-21-3-13-3-36v-31l3-28v-9l-6-8-8-7-5-4-14-16-12-16-9-16-5-10-2-1 5 28 5 33 9 56 6 36 5 32 7 46 3 18 5 33 4 21 6 40 8 52 8 50 5 27-1 4h-6l-2-5-7-44-8-52-6-37-12-72-4-29-5-30-4-26-5-27-5-34-6-39-5-33-6-39-6-29-4 21-3 19-3 24-5 35-4 27-6 38-9 65-7 48-5 35-7 50-5 30-5 36-6 45-4 21-1 2h-5l-1-1 1-12 4-29 7-47 5-37 7-48 8-53 8-57 7-48 11-77 6-36 5-38 4-27z" fill="#604AB6"/>
<path transform="translate(1202,1393)" d="m0 0 463 1 1 1 1 44v40l1 6-1 1-1 82 1 1v30l-1 59h-489l1 3 1 16v14l-4-2-12 7-6 2v3l21 1-2 2h-10l-5-1-19-1-12-2-6-7-1-4-1-26v-15l1-24 32-1h24v-2l-2-1h2l-1-52v-81l-1-6 1-69 1-18z" fill="#A992FA"/>
<path transform="translate(473,888)" d="m0 0h6l13 15 8 8 10 8 10 6 18 7 6 1h15l15-4 3-2-1-5-4-10v-12l2-8h9l26 5 20 6 60 21 31 12 33 16 22 13 12 9 12 11 3 3v2l-6-2-7-3h-16l-10 4-7 6-9 13-5 13-5 22-4 21h-2l-8-13-20-6-47-9-20-3-2 3-8 36-2 16v2l-78 1-4 2-4 12-9 57-5 37-4 24-49 3-37 4-30 2h-17l-12 2-3 1-4-2-1-4-6-7-20-40-8-20-1-5-3-7v-9l4-13 6-26 5-19 4-16 12-52 3-14 13-39 10-18 9-10 7-8 7-7 13-10 14-8 16-7 16-5z" fill="#FB686B"/>
<path transform="translate(594,1293)" d="m0 0h194l12 5 16 9 5 4 3 1 5 5 10 9 5 5 9 12 6 9 7 4v2l6 2 44 24 1-13 2-20 3-16 6-42h12l3 9 2 18 1 2 1 11 2 8 3 25 1 1 3 25 5 33 2 10 2 16 2 10 2 13 2 17 3 16 8 53 1 11 2 8 4 32 1 1 7 46 3 25 2 8 3 26 5 31 5 40 3 16-5 1-3-3-5-28-4-30-2-8-3-24-9-60-1-1-2-19-16-105-9-59-2-10-2-16-2-10-4-31-5-32-1-2-2-19-6-37-1-3-5 36-6 44 5 2 4 3 1 6-6 7-6 2-3 15-3 26-4 25-2 19-2 11-6 41 1 17 3 44 1 24v74l-2 6-8 2-94 12-5-1-4-10-18-71v-4h-2l-4-20-13-53v-4h-2l-4-20-2-5-3-16-4-14-3-16-3-14-2-6-5-26-1-4-22 2-25 2h-55l1-6 5-12 4-15 1-8v-14l-3-19-6-21-9-20-8-14-13-17-3-3z" fill="#1E1E1E"/>
<path transform="translate(934,1307)" d="m0 0 2 4 7 43 1 13 2 8 7 47 2 17 2 8 2 19 2 8 14 92 11 72 1 13 1 1 11 73 1 15-19 2-44 2h-34l-4-1 3 12 6 5 28 10 36 9 13 4 9 6 3 7v5l-4 5-8 4-13 2-21 1h-85l-28-1-5-6-8-24-4-18 1-4 3-2-3-9v-3l-87-9-27-4-47-8-3-2-5-13-4-13-4-11v-3h-2l-9-24-1-8h-2l-7-19-2-9-1-5h-2l-2-8-3-5-3-9-2-10h-2l-4-11-1-8h-2l-2-11h-2l-5-16-1-1v-5h-2l-2-8-2-3-3-10-3-8-7-20 1-3 58-1 37-3 9-2 22-3 16-4 14-4 5 1 2 9 2 6 4 17 3 16 4 14 1 8 3 9 2 16h2l16 65 1 12h2l19 75 3 9 5 1 85-11 17-2 1-6v-74l-2-41-3-37 1-13 6-43 1-3 3-26 3-18 3-26 3-15 8-4 4-5-1-6-8-5 1-15 7-49 2-16z" fill="#EBE6FD"/>
<path transform="translate(1569,711)" d="m0 0h1l1 175v194l-1 11v128l10-5 10-6 2-6h1v155h-5l-2 4h-2l-1 13h2l4 5 4 2h7l6-3 3-7v-7l-4-5-8-4-1-170v-129l1-315h1l1 312-1 80v30l1 40 6-4 8-7 6-1 4 2 1-2 1-25 1-9 4-1 1 29 14-7 20-4 16-2h27l18 3 15 4 18 8 16 10 10 8 15 15 10 14 8 16 5 13 2 10v34l-4 20-8 24-11 26-9 19-12 22-10 15-6 5-3-3-3-7-5-3-107-107-3-2-3-5-9-9-1-6v-102h-2v11l-1 5v94h2l1 5 4 1 39 39 1 4 5 2 5 6 5 2 4 5 6 5 7 8 32 32 3 5 5 5v2h2v2l4 2 2 2 1 12v17l-7 10-6 9-10 13-12 14-11 13-4 5-5 5-13 12-9 8-11 7-1 13-2-1 1-82 1-5-1-5v-37l-1-44-273-1v-1l56-1v-5l-2-3 12-2 4-3h2l1-14 11-12 55-55 7-8 15-15h2l2-4 9-9 1-2h2l-1-43v-386z" fill="#ECE7FD"/>
<path transform="translate(546,1090)" d="m0 0h84l101 1h68l34 1 2 2v9l-11 69-6 35-8 48-2 13-1 2-298 1h-33l-12-1-3-3v-9l2-3h52l1-14 8-49 7-50 6-37 4-12z" fill="#020202"/>
<path transform="translate(893,1252)" d="m0 0h147l5 4 14 8 13 10 3 1 1 73v261l2 5 4 4v2l15 3v34l-1 63-13 5-44 10-28 4h-3l-3-15-3-21-2-18-2-9-4-31-5-33-1-1-4-32-2-8-3-24-8-53-1-3-2-17-2-13-3-16-2-17-3-15-4-27-2-19-1-1-3-25-2-8-1-11-2-10-1-10v-9l12-1h29v-22h-93l1-12z" fill="#ECE7FD"/>
<path transform="translate(1637,376)" d="m0 0h25l10 3 9 5v2l4 1 2 1v2l5 1 8 8 3 6 4 6 2 9 3 1v2l4 1 5 3v2l4 1v2l4 1v2l4 1v2l4 2 9 10 3 5 3 3 1 6h2l2 5 1 22-3 15-8 16-5 9-4 4-2-1v22l-4 11-7 10-10 7-5 3-4 1h-15l-7-2v18l-1 36-6-1-4-5-3-6v-2h-2l-1-4h-2v-3h-2l-1-3-2-1v-3h-2l-4-7v-2h-2v-3l-9 2-5 2h-10l-6-2v-2l-7-2-5-5-3-1-1-5h-2l-5-13v-2l-9 3-2 1h-18l-9-4-10-5v-2l-4-1-9-12-5-13v-8l-8 5-6 2-8 1h-10l-10-3-9-4v-2l-4-1-7-8-2-2v-3h-2l-4-11-1-6v-17l4-11 2-4h2v-3h2l2-4 4-4h2v-2l11-6 12-3 4-4 4-14h2l1-4 4-10h2v-3l8-8h2l1-3h3v-2l9-4 8-3 11-2h12l11 3 8 4 6 2 1-3h2l2-4 4-3h3v-2l14-6z" fill="#A790F9"/>
<path transform="translate(1101,1623)" d="m0 0h18l1 1 1 67 4 6 7 6 8 2v1h-10l-6 5-18 6-4 1v31l1 9 5 7 7 3h60l3-1v-17l488 1v91l-1 1h-485l-1-1v-69h-64l-8-3-6-7-3-9-2-33v-64l1-33h1v71l1-68z" fill="#A992FA"/>
<path transform="translate(815 1e3)" d="m0 0h23l12 3 9 4v2l5 2 13 10 5 4 1 3 3 3v2h2l9 15 3 8v3h2l4 16 2 13-1 28-3 29-3 26-3 39-2 12-4 27-2 16h93v22l-41 1v7h-1l-1-6-12-1-1 13-6 42-2 11-2 18-1 7-6-2-44-24v-2l-6-2-4-4-5-9-7-9-5-4-5-6-10-8v-2l-4-1-14-9-15-7-4-2h-383l-123-1-1 3v-3h-40l-1-3 1-18 40-1 1-8 2 3 1 3 3 1 102 1-5-4-4-9v-4l12-3 32-3h35l25 4 4 2-3 2-22 1-1 2v9l2 2 12 1h331l6-40 7-40 6-36 8-51v-9l-1-1-36-1h-66l-101-1v-1l79-1 2-4 13-12 5-4h3l-1 19h76l2-2 6-16 2-11h2l1-12v-21l-3-12v-3h-2z" fill="#A891FA"/>
<path transform="translate(1666,1572)" d="m0 0h1v27l-1 59h-489l1 3 1 16v14l-4-2-12 7-6 2v3l21 1-2 2h-10l-5-1-19-1-12-2-6-7-1-4-1-26v-15l1-24 32-1h24v-2l-2-1h2l-1-47h204l202 1h81z" fill="#A992FA"/>
<path transform="translate(1202,1393)" d="m0 0 463 1 1 1 1 44v41l-489 1v-69l1-18z" fill="#A992FA"/>
<path transform="translate(934,1307)" d="m0 0 2 4 7 43 1 13 2 8 7 47 2 17 2 8 2 19 2 8 14 92 11 72 1 13 1 1 11 73 1 15-19 2-44 2h-34l-4-1 3 12 6 5 28 10 36 9 13 4 9 6 3 7v5l-4 5-8 4-13 2-21 1h-85l-28-1-5-6-8-24-4-18 1-4 3-2-3-9-5-14-2-8h-17l-4-7-6-21-2-9 1-4 8 30 2 6 5 1 85-11 17-2 1-6v-74l-2-41-3-37 1-13 6-43 1-3 3-26 3-18 3-26 3-15 8-4 4-5-1-6-8-5 1-15 7-49 2-16z" fill="#E9E3FC"/>
<path transform="translate(1569,711)" d="m0 0h1l1 175v194l-1 11v128l10-5 10-6 2-6h1v155h-5l-2 4h-2l-1 13h2l4 5 4 2h7l6-3 3-7v-7l-4-5-8-4-1-170v-129l1-315h1l1 312-1 80v30l1 40 6-4 8-7 6-1 4 2 1-2 1-25 1-9 4-1 1 29 1 1 1 101v8l2 7 44 44 6 7 8 7 11 12 17 17-1 2-73-73-3-2-3-5-9-9-1-6v-102h-2v11l-1 5v94h2l1 5 4 1 39 39 1 4 5 2 5 6 5 2 4 5 6 5 7 8 32 32 3 5 5 5v2h2v2l4 2 2 2 1 12v17l-7 10-6 9-10 13-12 14-11 13-4 5-5 5-13 12-9 8-11 7-1 13-2-1 1-82 1-5-1-5v-37l-1-44-273-1v-1l56-1v-5l-2-3 12-2 4-3h2l1-14 11-12 55-55 7-8 15-15h2l2-4 9-9 1-2h2l-1-43v-386z" fill="#EBE5FD"/>
<path transform="translate(360,1405)" d="m0 0 4 2 11 8 22 14 16 9 14 7 23 10 19 7 29 9 35 7 14 2 2 1-1 9-1 1-1 8h-2v8l-2 5-3 16-24 99-12 49-1 2-10-2-25-13-18-12-9-7-14-12-16-16-11-14-10-15-10-18-10-24-6-21-3-13-3-36v-31l3-28z" fill="#ECE7FD"/>
<path transform="translate(567,360)" d="m0 0h225l12 3 10 7 5 5 4 5 4 8 2 5 1 7 1 26 12 3 12 5 10 9 6 8 5 11 1 4v22l-4 12-9 12-5 4h-2v2l-5 3h-2l-1 45-1 92h-2l-2 4-4 4 9 8 7 11 2 7h2l4 8v3h2l4 9v2h2l4 9v2h2l6 12v3h2l4 8v3h2l5 10 6 11v3h2l7 14 4 12v4h16l15 7 7 4 11 10 7 9 4 8v8l-5 5-5 1-5-2-2-5h-2l-3-6v-2l-4-2-7-7v-2l-6-2-10-4h-11l-6 3h-4l-2 4-6 7-3 12v11l2 11 2 6v10l-1 2h-2v3l-10 1-6-8-5-11-1-9v-12l1-14 5-13 1-2h2v-5l-5-5-8-13v-3h-2l-12-23-5-9v-2h-2l-11-23-9-16-6-11v-3h-2l-10-19-1-3v-7l3-7 5-5 1-3-9-2-6-7-2-3-1-7-1-32-3-5-8-7-5-6-4-3v-2l-4-2-4-4v-2l-4-2-12-12v-2h-2l-4-5-6-5v-2l-4-2v-2l-4-2-4-4v-2h-2v-2h-2v-2h-2l-7-8-26-26-11-7-14-7-6-2-7-1-89-1v-3h88l15 3 14 6 11 8 12 11 6 6v2l4 2 7 8 76 76 2 1v-46l-8-7-7-8-67-67-9-8-2-1v-2l-4-1-16-8-14-3-108-1v-3h110l16 4 16 8 13 11 19 19 5 6 3 2v2l4 2v2l4 2v2l4 2 7 8 32 32 2 1-1-35 1-5-4-2-5-4-3-4v-2h-2l-7-14-2-7v-18l3-10 6-11 9-10 10-6 18-5h4l-2-27-3-10-5-10-7-7-7-4-6-3-6-1-219-1-6-1z" fill="#A992FA"/>
<path transform="translate(1227,743)" d="m0 0h15l14 1 17 4 11 6 11 8 10 9 2 4h2v2h2l11 23 5 16v16l-3 20-3 11h-2l-1 5-10 14-12 14h-2v2l-16 9-15 6-17 3h-9l-22-4-12-4-11-7-11-9-6-5-7-10-8-17-4-11-1-7v-22l3-16 3-12h2l2-6 11-14 9-10h2v-2h2v-2l11-6 16-6z" fill="#EBE5FD"/>
<path transform="translate(578,710)" d="m0 0h11l10 5 11 12 11-2h11l10 6 7 11 2 7v9l-4 10-4 5-7 5-7 1v11l-6 25-5 15-8 16-4 6-9 10-8 5-4 1-3 9-2 3-2 7-3 1v3h7v1h-8l-1 8v12l4 10 1 5-6 4-13 3h-15l-12-3-13-6-12-7-16-15-9-10-3-4-11 1-24 8-19 10-12 9-12 11-11 12-7 11-6 11-2 2h-6v-2l7-3 7-14 11-14 5-5 5-6 13-10 15-9 13-6 20-7 18-2 12-6 6-5 6-8 7-16 6-18v-5l-3-1-1-21-5-13-4-5v-8l4-5v-9l-1-4v-7l5-5 9-6v-15l5-8 9-5 27-1z" fill="#D4C3F9"/>
<path transform="translate(815 1e3)" d="m0 0h23l12 3 9 4v2l5 2 13 10 5 4 1 3 3 3v2h2l9 15 3 8v3h2l4 16 2 13-1 28-3 29-3 26-3 39-2 12-5 32-3 10h-76l1-12 6-34 6-37 6-35 5-31 2-14v-14l-3-2-25-2-1-2 6-16 2-11h2l1-12v-21l-3-12v-3h-2z" fill="#1E1E1E"/>
<path transform="translate(520,1293)" d="m0 0h43l8 1 10 9 10 11 10 15 8 15 6 16 4 16 2 16v9l-2 13-4 12-7 13-3 3-18-1-20-1-12-6-18-12-17-12-9-7-22-18-11-10-8-7-30-30-7-8-9-11-11-13v-2l54-2 29-4z" fill="#1E1E1E"/>
<path transform="translate(1302,271)" d="m0 0h18l2 1 1 80v85h31v4l-1 1-119 1h-189l-3-2 2-1 14-1v-44l-1-19h36l1 22v41l37-1v-118h34l1 61v57h44l-1-34v-53l1-19 1-4v-19l-1-1h-1v-9l22-1h12l1 1 1 57v82l43-1v-165z" fill="#7558E6"/>
<path transform="translate(1125,1312)" d="m0 0 11 6 14 11 13 11 11 9 12 11 8 7 8 8 10 13 3 4 23 1v1h-59l-1 90 1 3v133h-56v-306z" fill="#ECE6FD"/>
<path transform="translate(558,1482)" d="m0 0 4 2 5 11 18 49 8 22v5h2l20 55 1 2v6h2l10 27 2 11h2l2 11h2l3 8v6h2v6h2l4 11 1 7-10-1-48-10-49-14-26-9-6-3 1-9 3-9 2-11 1-1 2-12h2v-9l3-8 3-12 2-13h2v-8l2-9h2l2-17 3-8 5-25 6-21 3-12 1-7 1-1 1-9z" fill="#EAE4FD"/>
<path transform="translate(388,1145)" d="m0 0h17l21 2 19 4 27 8 46 13h9l-1 13-6 38-49 3-37 4-30 2h-17l-12 2-3 1-4-2-1-4-6-7-20-40-8-20 1-5 20-6 24-5z" fill="#D5C4F9"/>
<path transform="translate(773,984)" d="m0 0h16l13 6 1-2 10 15 2 2v6h2l4 15v21l-2 12h-2l-1 11-6 17-3 2h-77l1-15 1-5-5 3-10 9-7 6-1 2-4 1h-81l-1-6 6-31 4-17 3-4 26 4 41 8 20 6 6 9 2 5h2v-7l8-36 5-13 7-10 5-6 9-6zm-85 81-3 3v9l7 3 9-2-1-7-5-5z" fill="#D4C3F9"/>
<path transform="translate(1420,729)" d="m0 0h9l1 1 2 11 5 3h7l6-5 5 2 4 4-2 5-1 1v8l5 4h10l3 3 1 2v6l-7 4-1 7 2 5 9 4 1 6-2 5-10 1-5 8 2 7 4 4-1 4-4 4-4-1-4-2-5 1-6 4-1 1v6l2 2v4l-8 3-4-1-3-6-5-2-6 1-4 4-3 7-9-1-1-10-5-4-2-1h-7l-5 5-4-1-5-3 1-5 2-3v-7l-4-5-2-1h-6l-4 2-5-8 1-3 7-4 1-2v-8l-4-5-7-3 1-9 1-1 9-1 3-3 2-9-5-5-1-3 5-7 5 1 1 1h12l2-5 1-5-2-3v-4l10-3 6 8 3 1h7l4-6z" fill="#FC696B"/>
<path transform="translate(578,710)" d="m0 0h11l10 5 11 12 11-2h11l10 6 7 11 2 7v9l-4 10-4 5-7 5-7 2h-12l-7-1h-18l-6 3-5 4-7 8-7 6-3 1-4-5v-2h-2v-2l-6-2-10-1v2l-5 2-4 6v13l5 5v2l3 1-1 4-11 5h-9l-3-2-1-21-5-13-4-5v-8l4-5v-9l-1-4v-7l5-5 9-6v-15l5-8 9-5 27-1z" fill="#1E1E1F"/>
<path transform="translate(897,1215)" d="m0 0h1l-1 12 42-1-10-3-10-1-1-2 4-1h12l12 4 10 5 36 2 90 1 8 3 8 7 3 7 1 17v30l15 9 1-9 1-72h1v77l-1 320-16 1-2-2v-30l-1-42-1-243-1-25-1-3v-25l-4-8-5-4-9-2h-49l-29 1 1 4 11 3v1h-118l-1-12 2-16z" fill="#ECE7FD"/>
<path transform="translate(1227,743)" d="m0 0h15l14 1 17 4 11 6 11 8 10 9 2 4h2v2h2l11 23 5 16v16l-3 20-3 11h-2l-1 5-10 14-12 14h-2v2l-16 9-15 6-17 3h-9l-22-4-12-4-11-7-11-9-6-5-7-10-8-17-4-11-1-7v-22l3-16 3-12h2l2-6 11-14 9-10h2v-2h2v-2l11-6 16-6zm2 18-16 5-10 5-9 7-8 9-7 11-5 12-2 10v19l3 12 5 12 7 11 10 10 10 6 12 5 8 2 16 1 14-2 12-4 11-6 10-9 8-10 6-12 4-15v-24l-4-13-8-15-10-11-13-9-12-5-9-2z" fill="#FB686B"/>
<path transform="translate(892,1737)" d="m0 0h4l2 3 4 15 6 5 28 10 36 9 13 4 9 6 3 7v5l-4 5-8 4-13 2-21 1h-85l-28-1-5-6-8-24-4-18 1-4h9v2h24l10-4 14-10 10-9z" fill="#040305"/>
<path transform="translate(567,360)" d="m0 0h225l12 3 10 7 5 5 4 5 4 8 2 5 1 7 1 26 6 1v1l-6 1 14 5 9 5 9 8 5 7 3 7 1 6v20l-3 10-7 11-8 7-11 6-6 2h-17l-10-3-12-7-7-8-7-14-2-7v-15l4-13 8-11 3-3h2v-2l9-5 11-4 7-2 1-2-3-1h4l-2-27-3-10-5-10-7-7-7-4-6-3-6-1-219-1-6-1z" fill="#E5DFFB"/>
<path transform="translate(281,1293)" d="m0 0h13l5 29 2 17 15 96 7 40 6 39 7 46 3 18 5 33 4 21 6 40 8 52 8 50 5 27-1 4h-6l-2-5-7-44-8-52-6-37-12-72-4-29-5-30-4-26-5-27-5-34-6-39-5-33-6-39-6-29-4 21-3 19-3 24-5 35-4 27-6 38-9 65-7 48-5 35-7 50-5 30-5 36-6 45-4 21-1 2h-5l-1-1 1-12 4-29 7-47 5-37 7-48 8-53 8-57 7-48 11-77 6-36 5-38 4-27z" fill="#110F1B"/>
<path transform="translate(928,1293)" d="m0 0h12l3 9 2 18 1 2 1 11 2 8 3 25 1 1 3 25 5 33 2 10 2 16 2 10 2 13 2 17 3 16 8 53 1 11 2 8 4 32 1 1 7 46 3 25 2 8 3 26 5 31 5 40 3 16-5 1-3-3-5-28-4-30-2-8-3-24-9-60-1-1-2-19-16-105-9-59-2-10-2-16-2-10-4-31-5-32-1-2-2-19-6-37-1-3-5 36-6 44 5 2 4 3 1 6-6 7-6 2-3 15-3 26-4 25-2 19-2 11-4 28-4-1-1-9 1-28 5-36 1-2 2-18 4-25v-3l-21-2-13-4-4-13-6-19-6-12 1-4 10 4 44 24 1-13 2-20 3-16z" fill="#0A080E"/>
<path transform="translate(1402,1780)" d="m0 0h162l59 1v26h-271v-26z" fill="#7659E8"/>
<path transform="translate(375,963)" d="m0 0 1 3-9 25-5 18-6 29-5 19-4 17-7 28-6 26-4 13v9l1 6-2-2-2-6v-7l5-18 1-6-4 2-2 4-4 1-2-1-1-3-2-1-1-9h-2l-1-5-8-16-4-11-7-26-1-7-1-5-1-4-3-3 5-10 8-13 10-13 10-10 11-9 14-8 13-4z" fill="#7659E7"/>
<path transform="translate(1562,585)" d="m0 0h8l3 1v2l4 2 3 9-1 6-7 6-2 1-1 219v429h-2l-2 4-32 32-7 8-57 57-3 4-2 14-6 4-3 1h-10l-6-7-2-4 1-5 4-6 5-4 15 1 7-6 9-14 8-15 14-24 12-21 10-15 11-12 11-11 15-11 4-4v-614l-4-1-6-8v-9l7-8z" fill="#A38BF6"/>
<path transform="translate(1353,1521)" d="m0 0h270v26l-56 1h-112l-103-1v-25z" fill="#7659E8"/>
<path transform="translate(1353,1434)" d="m0 0h227l43 1 1 16v7l-1 2-72 1-199-1v-25z" fill="#7659E8"/>
<path transform="translate(1386,1608)" d="m0 0h237v26h-267l-3-1-1-16 1-8z" fill="#7659E8"/>
<path transform="translate(1383,1694)" d="m0 0h239l1 1v25h-270l-1-1v-24z" fill="#7659E8"/>
<path transform="translate(1081,824)" d="m0 0h6l1 9 5 4 6-1 3-2 7 1 1 4-2 3v7l4 4h10l1 1v8l-5 5v7l5 4 4 4v5l-1 1-10 2-2 3v6l5 7v2l-6 4-5-2h-6l-4 6 1 9-9 1-3-5-2-1h-6l-4 4-3 4h-6l-3-9-1-2h-10l-2 2h-5l-3-3 1-5 1-7-4-4-6-1h-5l-1-5 3-5h2l1-10-4-4-5-3v-6l9-3 4-4v-8l-4-2 1-6 4-2 5 2 7-1 3-4v-6-4l8-1 5 6h6l4-4 2-4z" fill="#FC696B"/>
<path transform="translate(862,1292)" d="m0 0h54l11 1-1 21-5 34-2 11-2 18-1 7-6-2-44-24v-2l-6-2-4-4-5-9-7-9-5-4-5-6-10-8v-2l-4-1-14-9-13-7-1-2h17z" fill="#EAE4FD"/>
<path transform="translate(1229,761)" d="m0 0h23l15 4 11 6 11 9 8 10 8 16 3 10v24l-4 15-6 12-8 10-7 7-14 8-16 5-16 1-15-2-13-5-9-5-10-9-8-10-5-10-4-12-1-6v-19l4-16 7-13 11-13 9-7 12-6zm4 14-11 2-14 7v2l-4 1-6 7v2h-2l-6 11v4h-2l-1 7v21l4 13 4 8 9 10 8 7 6 1v2l14 4h19l7-2v-2l6-1 11-7 10-10 7-14 3-9v-20l-6-16h-2l-1-4-2-4h-2l-2-4-10-8-12-6-9-2z" fill="#E8E1FD"/>
<path transform="translate(1302,271)" d="m0 0h18l2 1 1 80v83l-1 2-25 1-6-1v-17l6-2 1-18v-13l-1-19-7-2h-1l-1-11v-83z" fill="#7558E7"/>
<path transform="translate(1079,1266)" d="m0 0h1l1 14 8 5 7 4v330h-9l-5-3-1-2-1-22v-186l-1-5z" fill="#ECE6FD"/>
<path transform="translate(1231,298)" d="m0 0h12l1 1 1 57v82h43v1h-75l-3-1-1-34v-53l1-19 1-4v-19l-1-1h-1v-9z" fill="#F9686C"/>
<path transform="translate(636,1032)" d="m0 0 26 4 41 8 20 6 6 9 4 7-7 7-16 14-1 2-4 1h-81l-1-6 6-31 4-17zm52 33-3 3v9l7 3 9-2-1-7-5-5z" fill="#FBFAFD"/>
<path transform="translate(1590,614)" d="m0 0h7l6 3 4 5v12l-5 5-5 1v715l6 2 5 4 2 3v7l-4 8-6 3h-7l-6-4-2-4h-2v-11l5-6h5l-1-155-1-561-6-3-4-5v-11l5-6z" fill="#B199FA"/>
<path transform="translate(897,1215)" d="m0 0h1l-1 12 42-1-10-3-10-1-1-2 4-1h12l12 4 10 5 36 2 90 1 8 3 8 7 3 7 1 17v30l1 1 1 13v282l-1 15v11l1 1 14 1-2-61v-81l1-26v-47l1-95h1v311l-16 1-2-2v-30l-1-42-1-243-1-25-1-3v-25l-4-8-5-4-9-2h-49l-29 1 1 4 11 3v1h-118l-1-12 2-16z" fill="#BAA1F9"/>
<path transform="translate(1123,1624)" d="m0 0h56v33l-1 4 1 16v14l-4-2-12 7-6 2v3l21 1-2 2h-10l-5-1-19-1-12-2-6-7-1-4-1-26v-15z" fill="#EBE6FD"/>
<path transform="translate(1491,570)" d="m0 0h9l6 4 3 4v9l-3 6-5 3-7 1-7-1-2 4-15 14-39 39-1 2h-2l-2 4-7 8-3 1h-316l-7 8-10 9-10 11-7 8-10 9-1 2h-2v2l-5 4-1 2h-2v2h-2l-2 4-23 23 2 7-1 6-6 6-3 1h-9l-6-5-2-4v-8l4-6 3-2h3v-2h6l2 1v2l4 1 17-17 7-8 10-10 8-7 4-5h2l2-4h2l2-4 14-14 7-8 8-8 3-2 24-1h291l5-3 31-31 6-7 8-7 10-10 1-2h2l2-4 4-2-2-8v-8l4-6z" fill="#AF98FA"/>
<path transform="translate(723,1439)" d="m0 0 5 1 5 24-1 2-7 1-17 5-15 3-24 3-2 1h-26l-9-2-19-10-5-3v-2h2v-2h2l2-4 3-1 1-4 2-1 2-5h56l25-2 14-2h6z" fill="#7659E7"/>
<path transform="translate(1407,531)" d="m0 0 7 1 6 4 3 6v6l-5 7-7 3-8-1-5-5-3-4h-162l-9-1h-72l-85 1h-49l-6 7-8 7-11 12-19 19-8 7-3 4h-2l-2 4-3 1v2l-3 2 1 4 2 2v8l-5 7-5 2h-7l-6-3-4-7v-6l3-6 6-4h9 4l5-5 7-8 6-5 2-3h2l2-4h2l2-4 4-4h2l2-4 13-13h2v-2l8-7 6-7h2v-2h377l5-8z" fill="#A891FA"/>
<path transform="translate(900,1545)" d="m0 0h1l3 27 3 46 1 35v35l-1 18-3 6-10 4-2 4 2 14 1 3-7 4-11 10-14 9-8 3h-15l-9-1v-2h-7l1-4-6-16-2-5-2-8h-17l-4-7-6-21-2-9 1-4 8 30 2 6 5 1 85-11 17-2 1-6v-74l-2-41-3-37z" fill="#C4B2F2"/>
<path transform="translate(821,444)" d="m0 0h6v26l3-1 1-25 9 2 10 6 7 9 3 10v13l-5 12-6 7-9 5-9 2-12-1-9-4-8-7-6-11-1-5v-12l5-12 8-8 10-5z" fill="#030304"/>
<path transform="translate(933,454)" d="m0 0 9 1 6 5 3 7 201-1 258-1 2-5 6-5 2-1 9 1 5 4 3 7-1 8-4 5-6 2-10-1-4-5-1-6-4 2-456 1-6 7-5 2-9-1-6-7-1-9 4-6z" fill="#7659E8"/>
<path transform="translate(1414,760)" d="m0 0 10 1 14 7 6 7 4 8v15l-5 10-7 8-8 4-8 2h-7l-11-3-9-6-6-9-3-9v-9l3-8 7-9 10-6z" fill="#EBE6FD"/>
<path transform="translate(1495,605)" d="m0 0h7l7 4 3 4 1 9-3 5-5 4-8 1h-8l-6 7h-2v2h-2v2l-5 4-3 4h-2l-2 4-4 4h-2v2h-2v2h-2l-2 4-8 8h-2v2h-2v2l-5 4-1 2h-2v2h-2v2l-5 3-280 1-7 8-5 6-7 6-7 8-20 20h-2l-2 4h-2l-2 4h-2l-2 4-12 12-8 7-4 5h-2l-1 3-8 7-3 2 2 5v9l-4 6-3 2-8 1-7-3-2-4h-2v-11l7-8 9-1 6 2 17-17 2-3h2v-2l6-5 7-8 16-16h2l2-4 28-28h2l1-3 6-5 6-7 3-1 279-1 7-7 6-7 8-7 4-5 8-7 14-15 6-5 4-5h2l-1-7-1-3 1-7h2l2-4z" fill="#7259D1"/>
<path transform="translate(894,1239)" d="m0 0h1v7h132l34 1 9 3 6 7 3 6 1 18v123l1 2v207h-1l-1-5-1-41h-1v41l1 6-2-1-1-4v-261l-1-85-5-8-7-3-11-1-10 1-33 1-115-1-1 6-1-4 2-14z" fill="#B099F8"/>
<path transform="translate(1395,1568)" d="m0 0h271l1 4-2 3h-99l-185-1h-199l-4-1v-4z" fill="#5945A6"/>
<path transform="translate(1258,577)" d="m0 0h9l5 3 5 6v8l-6 7-4 2-8 2-17 17-7 8-5 4-5 5h-195l-4 1-7 8-9 8-7 8-12 12h-2l2 10-4 7-6 3h-8l-5-3-4-5v-9l3-5 8-5h5l5 4 4-2 5-4 5-5 4-5 6-5 6-7 6-5 5-6 2-1 198-1 27-27h2v-2h2l-6-7-1-2v-8l4-6z" fill="#B098FA"/>
<path transform="translate(562,1482)" d="m0 0h6l4 3 9 27 3 6 2 6 2 4v6h2l2 6 4 13v3h2l2 8v3h2l5 16v3h2l4 13 4 9 2 4v6h2l3 8 3 12 4 10v3h2l5 16 5 14v2h2l8 22 12 36 16 45 4 10v5l-5 1-4-6-20-56-6-14v-4h-2l-5-16v-3h-2v-6h-2l-2-8-1-6h-2l-2-5v-6h-2l-2-5-2-8-8-23v-2h-2l-2-8-19-52v-3h-2l-4-13-9-25-16-43-2-4z" fill="#0E0C14"/>
<path transform="translate(1179,1480)" d="m0 0h488l-1 5-1 1h-184l-302-1-2-1v-3z" fill="#634CBE"/>
<path transform="translate(1220,1657)" d="m0 0h376l70 1-1 5h-481l-7-2v-3z" fill="#5E48B1"/>
<path transform="translate(549,1481)" d="m0 0h7l1 2-1 9-1 1-3 15-4 16-3 9-3 13-3 16-3 9-2 12h-2l-1 9-1 8h-2l-1 13-4 16-2 4-1 9h-2l-1 12-2 4-2 12-3 10-5 19-9 38-8 34-6 23-3 7-3 1-3-3 4-19 18-75 5-21 14-57 26-107 2-12 1-1 1-8h2v-8l2-6z" fill="#0E0C15"/>
<path transform="translate(900,1188)" d="m0 0h196l11 1 8 5 5 5 4 8 1 106-1 1v59l-1 185h-1l-1-7-1 69h-1v-397l-2-18-5-8-3-2-10-1-200-1z" fill="#A990F7"/>
<path transform="translate(1182,1746)" d="m0 0h478l6 1v4h-487l-1-4z" fill="#614BB9"/>
<path transform="translate(386,537)" d="m0 0h165l1 1-1 13h-169l-5-2v-9l1-2z" fill="#BDA4F9"/>
<path transform="translate(1563,1226)" d="m0 0h1v30l-2 5-51 51-8 7-21 21-7 8-2-1 6-10 7-13 14-24 12-21 10-15 11-12 11-11 15-11z" fill="#ECE7FD"/>
<path transform="translate(359,501)" d="m0 0h135l5 3 1 3v7l-3 3-16 1h-119l-6-2-1-1v-10z" fill="#BEA4F9"/>
<path transform="translate(1522,656)" d="m0 0 9 1 5 5 2 4v7l-3 6-7 3-1 14v459l-3 1v-14l-1-22v-438l-6-2-3-3-2-3v-10l1-2h2l2-4z" fill="#AA93FA"/>
<path transform="translate(1214,1521)" d="m0 0h90l1 1v25h-91l-1-11v-14z" fill="#7659E8"/>
<path transform="translate(1213,1781)" d="m0 0h91l1 1v24l-10 1h-80l-2-4z" fill="#7659E8"/>
<path transform="translate(1213,1694)" d="m0 0h91l1 3v22l-3 1h-88z" fill="#7659E8"/>
<path transform="translate(1213,1608)" d="m0 0h91l1 5v20l-17 1h-72l-2-1z" fill="#7659E8"/>
<path transform="translate(1214,1434)" d="m0 0h50l41 1v25h-91l-1-11v-14z" fill="#7659E8"/>
<path transform="translate(1057,376)" d="m0 0h36l1 22v41l-2 1h-30l-4-1v-44z" fill="#FA686B"/>
<path transform="translate(1620,632)" d="m0 0h10l7 6 2 6v6l-5 7-6 1v405l-2 3-2-11-1-12v-61l1-323-7-2v-2l-3-1v-2h-2v-10l1-5z" fill="#AC95FA"/>
<path transform="translate(1227,743)" d="m0 0h15l14 1 17 4 11 6 11 8 10 9 2 4h2v2h2l11 23 5 16v16l-3 20-3 11h-2l-1 5-10 14-12 14h-2v2l-16 9-15 6-17 3h-9l-22-4-12-4-11-7-11-9-6-5-7-10-8-17-4-11-1-7v-22l3-16 3-12h2l2-6 11-14 9-10h2v-2h2v-2l11-6 16-6zm5 4-16 3-16 7-11 7-11 11-7 10-7 12-4 15-1 8v22l4 14 8 16 4 6 9 10 7 7 14 9 13 5 14 3h19l15-4 15-6 11-8 10-10 8-11 6-10 5-16 2-12v-14l-4-16-5-12-8-14-8-9-10-8-14-8-12-5-13-2z" fill="#24212B"/>
<path transform="translate(1080,491)" d="m0 0 7 2 5 6 1 4h252l2 1 1-6 6-6h11l5 3 3 6v8l-4 6-7 3-8-1-5-4-2-7-4 1h-245l-6-1-1 6-5 5-9 1-7-3-4-6v-8l4-6 4-3z" fill="#7659E7"/>
<path transform="translate(383,465)" d="m0 0h60l23 1 2 3v10l-2 1h-75l-76-1-2-1-1-4 2-6 5-2z" fill="#BEA4F9"/>
<path transform="translate(395,360)" d="m0 0h138l19 1v11h-170l-3-5 2-5 1-1z" fill="#BEA4F9"/>
<path transform="translate(1070,852)" d="m0 0h14l10 6 6 9 2 5v8l-4 10-6 7-8 4-11 1-10-3-8-7-4-9-1-7 3-10 6-8 8-5z" fill="#EBE5FD"/>
<path transform="translate(915,340)" d="m0 0h11l10 5 8 9 1 3v17l-9 12-11 4h-11l-8-4-7-7-3-8v-10l3-8 6-8z" fill="#E9E3FC"/>
<path transform="translate(297,571)" d="m0 0 46 1 7 2 2 3v10l-5 2h-103l-4-3v-11l2-2 4-1z" fill="#BEA4F9"/>
<path transform="translate(424,1247)" d="m0 0h35l25 4 4 2-3 2-22 1-1 2-1 11-1 1h-70l-5-3-5-10v-4l12-3z" fill="#FA686B"/>
<path transform="translate(914,813)" d="m0 0h14l12 4 10 6 11 10 7 11 3 9-4 2-1 2-5-2-2-5h-2l-3-6v-2l-4-2-7-7v-2l-6-2-10-4h-11l-6 3h-4l-2 4-6 7-3 12v11l2 11 2 6v10l-1 2h-2v3l-4-1v-3l-4-4-5-12-1-5v-22l3-10 6-11 7-6 9-5z" fill="#A48CF5"/>
<path transform="translate(878,1405)" d="m0 0 9 1 10 2 14 1 1 4-5 32-1 11-2 9-6 44h-2l-8-42-5-28-3-20-2-7z" fill="#E3DCFB"/>
<path transform="translate(1098,1245)" d="m0 0h2l2 13v37l1 1 1 13v282l-1 15v11l1 1 14 1-2-61v-81l1-26v-47l1-95h1v311l-16 1-2-2v-30l-1-42-1-243-1-25-1-3v-27z" fill="#D6C5FA"/>
<path transform="translate(1102,1624)" d="m0 0h18l1 67 4 6 7 6 8 2v1h-10l-6 5-18 6h-3l-1-47z" fill="#EBE5FD"/>
<path transform="translate(1564,1097)" d="m0 0h1l1 111 1-45h1l1 54v43h-2l-2 4-32 32-7 8-57 57-3 4-2 14-6 4-3 1h-10l-6-7-2-4 1-5 4-6 5-4 15 1 7-6 4-5 7-6 7-8 22-22 8-7 45-45 1-4z" fill="#AF97F9"/>
<path transform="translate(1290,365)" d="m0 0 7 2 1 1 1 28v11l-1 11-2 2h-5l1 4-1 13h31l1-2v2h31v4l-1 1-119 1h-189l-3-2 2-1 120-1h124l1-73z" fill="#634CBD"/>
<path transform="translate(1097,1276)" d="m0 0 2 3 1 25 1 243 1 51v22l-7 1-5-1v-1h6l-1-72v-257h2z" fill="#B29CF9"/>
<path transform="translate(1052,575)" d="m0 0h8l5 3 4 5 1 5h127v-5l7-6h10l7 6 2 4-1 7-3 5-6 4h-10l-6-7v-4h-127l-4 6-5 3h-10l-5-5-3-5v-7l4-6z" fill="#7558E6"/>
<path transform="translate(729,1069)" d="m0 0h3l-1 19h93l11 1 4 3v14l-8 51-8 49-7 40-4 22-4 1 1-14 11-65 6-36 8-51v-9l-1-1-36-1h-66l-101-1v-1l79-1 2-4 13-12z" fill="#EB6572"/>
<path transform="translate(862,1292)" d="m0 0h54l10 1v1h-66l-1 11-3 16-3 13-2 6-10-10-7-8-10-8v-2l-4-1-14-9-13-7-1-2h17z" fill="#D2C1F8"/>
<path transform="translate(279,535)" d="m0 0h64l8 3v8l-2 5-8 2h-68l-10-2-2-2v-10l3-3z" fill="#BEA4F9"/>
<path transform="translate(1524,1159)" d="m0 0h3v81l-3 5-7 7-8 7-59 59-7 8-11 11-7 6-7 8-11 11 1 11-4 7-5 4-8 1-6-4-4-7v-6l5-8 4-2 14 1 15-15 7-8 93-93h2l1-12 1-71z" fill="#A690F2"/>
<path transform="translate(1313,597)" d="m0 0 7 1 6 5 2 5 62-1 3-6 6-3h7l6 3 3 5 1 9-6 8-3 1h-12l-4-5-2-4v-3h-61v6l-7 6-8 1-7-3-4-7 1-10 4-5z" fill="#7B5FE9"/>
<path transform="translate(1593,1044)" d="m0 0h1l1 19 1 128v164l5 1 6 4 3 4v7l-4 8-6 3h-7l-6-4-2-4h-2v-11l5-6h5l-1-168z" fill="#9078EB"/>
<path transform="translate(1230,771)" d="m0 0h19l16 4 6 4 8 6 9 9 4 6 5 12 2 10v12l-3 15-6 12-2 3h-2l-2 4-5 5-9 7-8 4-9 3-6 1h-13l-14-4-10-5-6-4-5-4-8-10-6-12-2-7v-22l2-10 7-14 7-9 14-10 12-5zm3 4-11 2-14 7v2l-4 1-6 7v2h-2l-6 11v4h-2l-1 7v21l4 13 4 8 9 10 8 7 6 1v2l14 4h19l7-2v-2l6-1 11-7 10-10 7-14 3-9v-20l-6-16h-2l-1-4-2-4h-2l-2-4-10-8-12-6-9-2z" fill="#2C273F"/>
<path transform="translate(218,500)" d="m0 0h44l26 1 2 2 1 8-2 6-2 1h-69l-5-2-1-2v-9l3-4z" fill="#BEA4F9"/>
<path transform="translate(351,609)" d="m0 0h68l9 1 2 2v12l-1 1h-79l-4-3v-9z" fill="#BEA4F9"/>
<path transform="translate(830,431)" d="m0 0h8l16 8 9 8 5 7 3 7 1 6v20l-3 10-7 11-8 7-6 2-1-3v-6l-2-2 5-5 5-6 4-11v-13l-3-10-7-9-12-6-6-2-1-2z" fill="#E8E2FC"/>
<path transform="translate(1102,663)" d="m0 0h81v1l7 1v1l-20 1h-68l-5 5-16 15-8 9-7 8-10 9-1 2h-2v2l-5 4-1 2h-2v2h-2l-2 4-23 23 2 7-1 6-6 6-3 1h-9l-6-5-2-4v-8l4-6 3-2h3v-2h6l2 1v2l4 1 17-17 7-8 10-10 8-7 4-5h2l2-4h2l2-4 14-14 7-8 8-8z" fill="#775CE3"/>
<path transform="translate(1121,1357)" d="m0 0h1l1 201v62h54l2 1v2l-24 1h-32v39l1 26 2 6 4 4v2l-4-2-4-4-2-4-1-67h-18l-1 3-1 69-2-1v-71l-13-3-5-5-3-8v-41l1-36h1l2 77 2 8 5 2 9 2 4-1 8 1h12v-69z" fill="#7659E8"/>
<path transform="translate(819,427)" d="m0 0h8l-1 3-16 5-6 3-5 2v2l-6 5-7 11-3 11v15l4 12 6 10 5 6 14 8 8 2h17l10-4 10-6 7-8 6-12 1-5v-20l-2-9-7-11-9-8-15-7-7-2-1-2h10l15 6 10 9 6 8 5 11 1 4v22l-4 12-9 12-5 4h-2v2l-11 6-15 3-14-1-12-4-8-5-5-4-3-4v-2h-2l-7-14-2-7v-18l3-10 6-11 9-10 10-6z" fill="#181427"/>
<path transform="translate(1562,585)" d="m0 0h8l3 1v2l4 2 3 9-1 6-7 6-4 2v206l-2 8h-1v-215l-6-1-6-8v-9l7-8z" fill="#7659E7"/>
<path transform="translate(1246,719)" d="m0 0 20 1-1 6v9l6 11 1 2-12-2-4-1-14-1h-15l-20 6-11 5-4-2 2-7-1-9-2-4v-4l15-5h4l4 9 5 5 6 3 1 1 10-2 6-7z" fill="#FA686B"/>
<path transform="translate(900,1188)" d="m0 0h196l11 1 8 5 5 5 1 6v62h-1l-1-44-2-18-5-8-3-2-10-1-200-1z" fill="#C1A9F8"/>
<path transform="translate(1420,454)" d="m0 0 9 1 5 4 3 7-1 8-4 5-6 2-10-1-4-5-1-6h-5l-1-1h-418v-1l165-1 258-1 2-5 6-5z" fill="#A992FB"/>
<path transform="translate(1628,704)" d="m0 0h1l2 231 1 85-1 29-1 103-4-2-1-2v-88l2 3z" fill="#BDA3F9"/>
<path transform="translate(995,1235)" d="m0 0h13l22 1v1l-29 1 1 4 11 3v1h-118v-10z" fill="#EBE5FD"/>
<path transform="translate(498,328)" d="m0 0 51 1 3 1v9l-1 1-25 1h-58l-9-1-2-2v-6l4-3z" fill="#BEA4F9"/>
<path transform="translate(567,360)" d="m0 0h225l12 3 10 7 5 5 4 5 4 8 2 5 1 7 1 26 6 1v1l-6 1 2 2h-3l1 11v27l-4 1-1-4v-23l1-12-3-1 3-3-3-1h4l-2-27-3-10-5-10-7-7-7-4-6-3-6-1-219-1-6-1z" fill="#7659E8"/>
<path transform="translate(451,609)" d="m0 0h58l4 1 2 3v9l-5 3h-61l-3-2-1-7 1-5z" fill="#C1A9F9"/>
<path transform="translate(495,432)" d="m0 0h56l5 2v13l-1 1-38 1-25-1-4-4v-8l2-3z" fill="#C0A8F9"/>
<path transform="translate(383,358)" d="m0 0h152l16 1 3 3v11l-2 2-27 1h-114l-29-1-5-4v-8l3-4zm12 2-13 1-3 4 2 6 1 1h170v-11l-19-1z" fill="#D6C5FA"/>
<path transform="translate(1140,699)" d="m0 0 2 1-6 7-7 6-7 8-20 20h-2l-2 4h-2l-2 4h-2l-2 4-12 12-8 7-4 5h-2l-1 3-8 7-3 2 2 5v9l-4 6-3 2-8 1-7-3-2-4h-2v-11l7-8 9-1 6 2 17-17 2-3h2v-2l6-5 7-8 16-16h2l2-4 28-28h2l1-3z" fill="#7659E6"/>
<path transform="translate(1629,1194)" d="m0 0h2l1 102 2 7 10 10 1 3 8 7 106 106v5l-59-59v-2l-4-2v-2l-4-2-3-4-5-2-4-5-5-3-4-6-37-37-3-1-1-5h-2l-1-2v-92l1-7z" fill="#AA92FA"/>
<path transform="translate(1019,543)" d="m0 0h70v1l-35 1v1l-34 1-5 5-13 12-7 8-21 21-8 7-3 4h-2l-2 4-3 1v2l-3 2 1 4 2 2v8l-5 7-5 2h-7l-6-3-4-7v-6l3-6 6-4h9 4l5-5 7-8 6-5 2-3h2l2-4h2l2-4 4-4h2l2-4 13-13h2v-2l8-7 6-7z" fill="#7659E7"/>
<path transform="translate(1739,1414)" d="m0 0 7 6 12 12-1-5 4 2 3 10-2 7-1 185-4 7-12 12-2-3 9-9 4-6v-172l-1-21-1-8-5-4v-2h-2l-7-8z" fill="#C8B2F9"/>
<path transform="translate(494,464)" d="m0 0h42l7 1 2 2v12l-1 1-9 1h-38l-10-2-2-3v-8l3-3z" fill="#C1A8F9"/>
<path transform="translate(1522,656)" d="m0 0 9 1 5 5 2 4v7l-3 6-7 3-1 14v113l-1 29h-2v-147l-1-8-8-4-3-5v-10l1-2h2l2-4z" fill="#7559E7"/>
<path transform="translate(566,488)" d="m0 0h88l15 3 14 6 11 8 12 11 6 6v2l4 2 7 8 87 87 1 4-7-4-11-12-5-5-8-7v-2l-4-2-4-4v-2l-4-2-12-12v-2h-2l-4-5-6-5v-2l-4-2v-2l-4-2-4-4v-2h-2v-2h-2v-2h-2l-7-8-26-26-11-7-14-7-6-2-7-1-89-1z" fill="#644DBE"/>
<path transform="translate(1569,711)" d="m0 0h1l1 175v194l-1 11-1 126h-1v-386z" fill="#CFBBF9"/>
<path transform="translate(415,431)" d="m0 0h24l15 1 5 3 1 2v8l-3 3-4 1h-43l-5-2-2-4 1-8 1-2z" fill="#BEA4F9"/>
<path transform="translate(1590,614)" d="m0 0h7l6 3 4 5v12l-5 5-5 2-1 13v96l-1 30-1 5h-1v-144l-7-2-5-6v-11l5-6z" fill="#7659E8"/>
<path transform="translate(1518,680)" d="m0 0 5 2 1 438 1 29-1 6h-1l-1-24-1-2-1-103v-119l1-70 1-154-4-1z" fill="#D5C3F9"/>
<path transform="translate(566,456)" d="m0 0h110l16 4 16 8 13 11 19 19 5 6 3 2v2l4 2v2l4 2v2l4 2 7 8 43 43 2 5-4-2-6-5-6-7-7-6-7-8-63-63-9-8-2-1v-2l-4-1-16-8-14-3-108-1z" fill="#664EC1"/>
<path transform="translate(1491,570)" d="m0 0h9l6 4 3 4v9l-3 6-5 3-7 1-7-1-2 4-15 14-39 39-1 2h-2l-2 4-8 7h-8l-8-2v-1l15-1 35-35 6-7 8-7 10-10 1-2h2l2-4 4-2-2-8v-8l4-6z" fill="#7559E3"/>
<path transform="translate(375,394)" d="m0 0h29l11 1 4 2 1 2v10l-6 4h-37l-6-3-3-4 2-9z" fill="#BEA4F9"/>
<path transform="translate(1627,1156)" d="m0 0h3l1 29 1 1 1 101v8l2 7 44 44 6 7 8 7 11 12 17 17-1 2-73-73-3-2-3-5-9-9-1-6v-102h-2v11l-1 5v94l-5-5v-40l1-22v-46l1-25 1-9z" fill="#BEA4F9"/>
<path transform="translate(1620,632)" d="m0 0h10l7 6 2 6v6l-5 7-6 2-1 134-1 10h-1l-1-144-7-2v-2l-3-1v-2h-2v-10l1-5z" fill="#785CE8"/>
<path transform="translate(415,1293)" d="m0 0h96l-6 4-21 4-17 2h-56l-3-4v-5z" fill="#F7686C"/>
<path transform="translate(1495,605)" d="m0 0h7l7 4 3 4 1 9-3 5-5 4-8 1h-8l-6 7h-2v2h-2v2l-5 4-3 4h-2l-2 4-4 4h-2v2h-2v2h-2l-2 4-8 8h-2v2h-2v2l-5 4-1 2h-2v2h-2v2l-2-1 1-4 10-11 8-7 4-5 8-7 14-15 6-5 4-5h2l-1-7-1-3 1-7h2l2-4z" fill="#775AE7"/>
<path transform="translate(448,395)" d="m0 0h39l6 2 1 5-1 8-4 2-26 1-17-1-4-4v-9l3-3z" fill="#BEA4F9"/>
<path transform="translate(1742,1648)" d="m0 0h2l-1 4-11 12-42 42 1 5 1 2v6l-7 8-7 2-9-3-2-1-2-12 2-7 6-3h14z" fill="#7A5EE9"/>
<path transform="translate(642,1683)" d="m0 0h3l8 22 12 36 16 45 4 10v5l-5 1-4-6-20-56-6-14v-4h-2l-2-11 3-2-3-13-3-7z" fill="#0E0C16"/>
<path transform="translate(461,1267)" d="m0 0 3 2 12 1h331l1-2 80 1 1-2v3l-2 1h-79l-2 1h-342l-3-2z" fill="#6950CC"/>
<path transform="translate(328,329)" d="m0 0h61l3 2v7l-1 2-21 1-40-1-12-2-4-4 2-4z" fill="#BEA4F9"/>
<path transform="translate(376,572)" d="m0 0h24l15 1 3 3v10l-1 2-5 1h-38l-5-2-1-1v-10l2-3z" fill="#C2AAF9"/>
<path transform="translate(444,573)" d="m0 0h44l3 2 1 10-1 3-6 1h-33l-10-2-2-4 1-8z" fill="#C1A8F9"/>
<path transform="translate(337,431)" d="m0 0h34l5 3 1 2v10l-5 3h-34l-5-2-2-2v-8l2-4z" fill="#BEA4F9"/>
<path transform="translate(1027,635)" d="m0 0h15v1l-13 2-5 5-14 13-7 8-12 12h-2l2 10-4 7-6 3h-8l-5-3-4-5v-9l3-5 8-5h5l5 4 4-2 5-4 5-5 4-5 6-5 6-7 6-5 4-4z" fill="#775AE6"/>
<path transform="translate(1258,577)" d="m0 0h9l5 3 5 6v8l-6 7-4 2-8 2-17 17-7 8-5 4-2 3-7-1h-9l3-2 10-1 28-28h2v-2h2l-6-7-1-2v-8l4-6z" fill="#765AE5"/>
<path transform="translate(344,462)" d="m0 0h71l42 2 7 1v1h-81l-64 1-5 2-1 9 139 2v1h-137l-4-2-1-2v-8l2-4 5-2z" fill="#D6C5FA"/>
<path transform="translate(505,1223)" d="m0 0h14l-1 12-2 8-10-2-31-7-16-3-7-2 2-2 17-2z" fill="#FB686B"/>
<path transform="translate(1074,1276)" d="m0 0h1l1 72v66l-1 185h-1l-1-50-1-31v-153l1-26z" fill="#D6C5FA"/>
<path transform="translate(1079,1406)" d="m0 0h2v207h-1l-1-5-1-41h-1v41l1 6-2-1-1-4v-195h1l1 90 1-1z" fill="#C7B2F9"/>
<path transform="translate(1052,575)" d="m0 0h8l5 3 4 5 1 5h126v1l-126 1-2 6-4 4-3 1h-10l-5-5-3-5v-7l4-6z" fill="#785CE6"/>
<path transform="translate(1399,598)" d="m0 0h7l6 3 3 5 1 9-6 8-3 1h-12l-4-5-2-4v-4h-60v-2l60-1 5-8z" fill="#7156DD"/>
<path transform="translate(800,495)" d="m0 0 5 5 8 6 12 3 11-1 8-3h3v2l1 1v7l1 3-8 4-4 1h-17l-10-3-10-6 2-1-1-10z" fill="#A58EF6"/>
<path transform="translate(317,326)" d="m0 0h69l7 3 2 4-1 6-5 5-12 1h-31l-22-1-10-2-3-4 1-7zm11 3-12 1-2 4 4 4 12 2 45 1 16-1 1-2v-7l-3-2z" fill="#D6C5FA"/>
<path transform="translate(1101,1623)" d="m0 0h18v1h-17l1 9v84l-1 1v31l1 15-3-3-2-7-2-33v-64l1-33h1v71l1-68z" fill="#AA92F9"/>
<path transform="translate(519,501)" d="m0 0h27l9 3v8l-2 4-3 1h-33l-5-5 1-7 3-3z" fill="#C1A8F9"/>
<path transform="translate(1288,438)" d="m0 0h36l2 2-80 1-38 1-77 1h-86l-3-2 2-1z" fill="#1E1E1E"/>
<path transform="translate(1032,732)" d="m0 0 2 1-7 8-3 5-6 6 2 7-1 6-6 6-3 1h-9l-6-5-2-4v-8l4-6 3-2h3v-2h6l2 1v2l4 1z" fill="#7659E7"/>
<path transform="translate(461,326)" d="m0 0h75l16 2 2 2v10l-3 3-9 1h-76l-8-1-3-3v-9l4-4zm37 2-37 1-4 3v6l2 2 9 1h67l16-1 1-1v-9l-3-1z" fill="#D6C5FA"/>
<path transform="translate(897,1215)" d="m0 0h1l-1 12 42-1-10-3-10-1-1-2 4-1h12l12 4 10 5 36 2 90 1v1h-186v-14z" fill="#DBCFFB"/>
<path transform="translate(914,813)" d="m0 0h14l12 4 10 6 11 10 7 11 1 5-4-1-5-8-6-8-14-10-15-5h-7l-13 4-4 3h-2l-2 4-6 8-4 10v22l2 9 3 7v4l-4-2-5-12-1-5v-22l3-10 6-11 7-6 9-5z" fill="#1D1D1D"/>
<path transform="translate(915,340)" d="m0 0h11l10 5 8 9 1 3v17l-9 12-11 4h-11l-8-4-7-7-3-8v-10l3-8 6-8zm2 4-8 4-7 7-2 5v11l5 9 7 5 3 1h9l8-3 5-4 4-8v-11l-3-7-7-6-7-3z" fill="#070707"/>
<path transform="translate(1159,754)" d="m0 0 5 1 3 3 5 2 12 1v3l-9 10-10 14-2 2-3-5-3-9-8-6 1-4 8-11z" fill="#FB696B"/>
<path transform="translate(1593,1339)" d="m0 0h2v17l10 2 5 6v7l-4 8-6 3h-7l-6-4-2-4h-2v-11l5-6h5z" fill="#795DE9"/>
<path transform="translate(1158,799)" d="m0 0h1l-1 8-2 13-1 20-4-8-7-6-5-2-8-1 1-17 1-2h13l7-3 3-1 2 1z" fill="#FC696B"/>
<path transform="translate(1299,737)" d="m0 0 4 1 13 10-1 3-5 5-2 5-1 9-5-1-8-7-10-7-9-5v-1l13-2 6-3z" fill="#FA686B"/>
<path transform="translate(1311,779)" d="m0 0h2v2h7l8 1 8-3 4 1 5 15v3l-8 3-6 5-3 4h-2l-1 2-6-16z" fill="#FB696B"/>
<path transform="translate(1316,870)" d="m0 0 3 1 5 10 8 7-1 5-9 11-4-1-5-4-9-3-7-1 6-8 10-13z" fill="#FC696B"/>
<path transform="translate(1327,823)" d="m0 0 7 6 5 3 12 2-2 15-2 5h-15l-9 3 1-11z" fill="#FB686B"/>
<path transform="translate(1286,902)" d="m0 0h1v14l3 8v4l-11 5-7 2-4-10-9-9-5-1v-1l12-3 16-7z" fill="#FB686B"/>
<path transform="translate(476,1006)" d="m0 0h5l-2 4-10 5-6 7-5 12-4 25-4 37-4 25-5 24-2 4h-2l1-11 6-34 4-30 4-33 4-15 5-9 4-5 7-4z" fill="#1E1E1E"/>
<path transform="translate(1155,842)" d="m0 0h1l2 10 9 21 1 4-3-1h-14l-6 2h-5l-4-14 1-5 9-3 8-10z" fill="#FB686B"/>
<path transform="translate(1209,910)" d="m0 0 10 2 24 4-2 5-4 8-2 10h-8l-11-2-1-4 1-8-3-9z" fill="#FB686B"/>
<path transform="translate(1407,531)" d="m0 0 7 1 6 4 3 6v6l-5 7-7 3-8-1-5-5-3-7 3-9 5-4z" fill="#7659E7"/>
<path transform="translate(1420,454)" d="m0 0 9 1 5 4 3 7-1 8-4 5-6 2-10-1-4-5-1-6-3-1 2-1 2-7 6-5z" fill="#7659E6"/>
<path transform="translate(1447,1358)" d="m0 0 13 1 4 6v14l-6 4-3 1h-10l-6-7-2-4 1-5 4-6z" fill="#7A5DE9"/>
<path transform="translate(1173,885)" d="m0 0h2v2l4 2 9 8 11 8-5 5-8 5-4 6-6-2-10-8v-3l6-10z" fill="#FC696B"/>
<path transform="translate(416,326)" d="m0 0h20l7 2 1 2v10l-3 3-23 1-7-2-2-2v-9l2-4z" fill="#BEA4F9"/>
<path transform="translate(933,454)" d="m0 0 9 1 6 5 4 8v3l-7 8-5 2-9-1-6-7-1-9 4-6z" fill="#7357E1"/>
<path transform="translate(1188,1481)" d="m0 0h30l154 1v1h-23v2h-167l-4-3z" fill="#604AB6"/>
<path transform="translate(1390,1358)" d="m0 0 11 1 4 4v3h2l1 7-4 7-5 4-8 1-6-4-4-7v-6l5-8z" fill="#7B5EE9"/>
<path transform="translate(753,360)" d="m0 0h39l12 3 10 7 5 5 4 5 4 8 2 5 1 7 1 26 6 1v1l-6 1 2 2h-3l1 11v27l-4 1-1-4v-23l1-12-3-1 3-3-3-1h4l-2-27-3-10-5-10-7-7-7-4-6-3-6-1-34-1-5-2z" fill="#634CBD"/>
<path transform="translate(314,501)" d="m0 0h22l5 2 1 10-1 3-6 2h-20l-4-2-1-2v-9z" fill="#BEA4F9"/>
<path transform="translate(830,428)" d="m0 0h10l15 6 10 9 6 8 5 11 1 4v22l-4 12-9 12-3 3-4-2 6-8 6-10 2-8v-20l-2-9-7-11-9-8-15-7-7-2z" fill="#252036"/>
<path transform="translate(520,397)" d="m0 0h34l1 1v11l-1 1-17 1-15-1-5-2v-9z" fill="#BEA4F9"/>
<path transform="translate(1112,543)" d="m0 0h191v1l-39 1-1 2-5-1-2-2-1 3h-3v-3l-10 1-1 2h-90l-23-1v-1l-16-1z" fill="#7659E8"/>
<path transform="translate(1628,704)" d="m0 0h1l2 231 1 85-1 27h-1l-1-27-1-165z" fill="#D6C5FA"/>
<path transform="translate(521,573)" d="m0 0h27l3 2v11l-6 2h-23l-4-4 1-9z" fill="#C0A7F9"/>
<path transform="translate(1118,1309)" d="m0 0h1v281l-2-2-1-31v-80l1-26v-47z" fill="#D6C5FA"/>
<path transform="translate(1290,269)" d="m0 0h31l2 1 1 45v122h-1l-2-162 1-3h-34l1 83v82h-1l-1-48v-33l-1-76 1-9h3z" fill="#BBA4F9"/>
<path transform="translate(566,359)" d="m0 0h219v1h-218v2l225 1v1h-227z" fill="#B69FFA"/>
<path transform="translate(359,501)" d="m0 0h135v1l-114 1-19 1-3 1-1 10 140 1v1l-16 1h-119l-6-2-1-1v-10z" fill="#D6C5FA"/>
<path transform="translate(297,571)" d="m0 0 46 1 7 2 2 3v10l-5 2h-103l-4-3v-11l2-2 4-1zm-52 3-3 1-1 2v7l2 3 26 1 79-1 2-1 1-7-2-4-2-1z" fill="#D6C5FA"/>
<path transform="translate(1408,469)" d="m0 0h3v3h-435v-1l431-1z" fill="#BDA3F9"/>
<path transform="translate(1295,838)" d="m0 0h2l-1 11-6 12-2 3h-2l-2 4-5 5-9 7-8 4-9 3-6 1h-13l-14-4-10-5-6-4v-4l5 2 3 3 6 2v2l8 1 6 2h19l7-1v-2l8-3 10-7 8-8 7-14 3-9z" fill="#262333"/>
<path transform="translate(1140,699)" d="m0 0 2 1-6 7-7 6-7 8-20 20h-2l-2 4h-2l-2 4h-2l-2 4-12 12-8 7-4 5h-2l-1 3-1-3 3-5 4-5h2v-2l6-5 7-8 16-16h2l2-4 28-28h2l1-3z" fill="#795EE4"/>
<path transform="translate(294,432)" d="m0 0h18l5 3 1 7-2 5-1 1h-22l-4-3v-9z" fill="#BEA4F9"/>
<path transform="translate(1196,1747)" d="m0 0h247v1l-224 2h-39l-1-2z" fill="#1E1E1E"/>
<path transform="translate(1098,1245)" d="m0 0h2l2 13v86l-1 203h-1l-1-243-1-25-1-3v-27z" fill="#BEA4F9"/>
<path transform="translate(285,315)" d="m0 0 6 1-2 6-8 8-1 6 6 7 4 4-1 5-7-1-5-5-9-8-1-2v-6l5-5 10-9z" fill="#D6C5FA"/>
<path transform="translate(1641,1313)" d="m0 0 3 1 115 115v5l-59-59v-2l-4-2v-2l-4-2-7-8-44-44z" fill="#6A51CD"/>
<path transform="translate(292,609)" d="m0 0h17l6 3 1 1v9l-4 3h-20l-3-1-1-2v-10z" fill="#BEA4F9"/>
<path transform="translate(1665,1836)" d="m0 0h1v6l-1 1h-396v-1l392-1z" fill="#D6C5FA"/>
<path transform="translate(218,500)" d="m0 0h44l26 1 2 2 1 8-2 6-2 1h-69l-5-2-1-2v-9l3-4zm4 3-7 2-1 7 2 3 5 1h66l1-1v-11l-1-1z" fill="#D6C5FA"/>
<path transform="translate(1121,1357)" d="m0 0h1l1 201v62l2 1h-17v-1h12v-69z" fill="#7659E8"/>
<path transform="translate(1019,543)" d="m0 0h70v1l-35 1v1l-34 1-5 5-13 12-7 8-21 21-8 7-4 4v-3l1-4 6-5 2-3h2l2-4h2l2-4 4-4h2l2-4 13-13h2v-2l8-7 6-7z" fill="#8368EB"/>
<path transform="translate(1583,282)" d="m0 0 5 2 14 8 18 12 16 11 17 13 10 8 9 7v2l4 2 12 11 8 7 2 3-4-1-5-5-4-3v-2l-4-2-13-11-10-8-8-6-4-2-4-4-4-2-12-8-7-5-2-3-5-2-2-2-6-4-4-4-12-6-5-5z" fill="#FEFEFE"/>
<path transform="translate(306,315)" d="m0 0 5 1 1 3-2 3h-2l-1 3-5 5-1 6 5 5v2l4 2 2 4-2 2h-6l-8-7-6-4-2-3 1-5 4-5 5-5z" fill="#D6C5FA"/>
<path transform="translate(1070,589)" d="m0 0h127v3h-124l-4-2z" fill="#6E57C9"/>
<path transform="translate(279,535)" d="m0 0h64l8 3v8l-2 5-8 2h-68l-10-2-2-2v-10l3-3zm-9 2-7 2v9l6 3h75l4-2 1-2v-8l-7-2z" fill="#D6C5FA"/>
<path transform="translate(1392,1394)" d="m0 0h273l1 1v29h-1l-1-28h-218l-7 1-50-1z" fill="#BEA4F9"/>
<path transform="translate(210,572)" d="m0 0h13l5 2 1 1v11l-5 3h-11l-7-2-2-9 3-5z" fill="#BEA4F9"/>
<path transform="translate(1524,1159)" d="m0 0h3v81l-3 5-5 4-1-5 3-1 1-12 1-71z" fill="#C1ABFA"/>
<path transform="translate(895,1227)" d="m0 0h1v5h70l11 1h15l7 1-4 2h-100l-1 3z" fill="#A992FA"/>
<path transform="translate(1077,1376)" d="m0 0h1l2 30-1 97-2 4-1-3v-111z" fill="#A48DF9"/>
<path transform="translate(1075,1414)" d="m0 0h1l1 90 2-1v64h-2v41l1 6-2-1-1-4z" fill="#BEA4F9"/>
<path transform="translate(1631,1186)" d="m0 0h1l1 101v8l2 7 44 44 6 7 8 7 11 12 17 17-1 2-73-73-3-2-3-5-9-9-1-6z" fill="#CDBAFA"/>
<path transform="translate(864,257)" d="m0 0h15l9 5 6 7 3 7v11l-2 7-4 6h-4l1-4 4-7v-11l-3-7-2-4-10-5h-10l-10 4-5 3v-5l10-6z" fill="#24222E"/>
<path transform="translate(1739,1414)" d="m0 0 7 6 12 12-1-5 4 2 3 10-3 10-1 24-1 51h-1l-2-64-1-21-1-8-5-4v-2h-2l-7-8z" fill="#B19AFA"/>
<path transform="translate(375,394)" d="m0 0h29l11 1 4 2 1 2v10l-6 4h-37l-6-3-3-4 2-9zm-1 3-2 2v8l3 2 5 1h36l2-2 1-7-4-4z" fill="#D6C5FA"/>
<path transform="translate(1065,1188)" d="m0 0h31l11 1 8 5 5 5 1 6v62h-1l-1-44-2-18-5-8-3-2-28-2-1-3-15-1z" fill="#C3ACF9"/>
<path transform="translate(1625,659)" d="m0 0h2v134l-1 10h-1l-1-143z" fill="#6C52D1"/>
<path transform="translate(1101,1623)" d="m0 0h18v1h-17l1 9v84l-1 1v31l1 15-3-3-2-7v-12l1-6 1-45z" fill="#C7B1F9"/>
<path transform="translate(1410,465)" d="m0 0v3l-4 1-1-1h-80l-173-1v-1z" fill="#D4C3FA"/>
<path transform="translate(942,359)" d="m0 0 2 1 1 14-9 12-11 4h-11l-8-4-7-7-1-12 1 4h2l4 7v2l10 5h9l8-3 5-5 3-6z" fill="#1C1A24"/>
<path transform="translate(1742,1648)" d="m0 0h2l-1 4-11 12-42 42-3-3z" fill="#927CDE"/>
<path transform="translate(479,886)" d="m0 0m-8 1h8v1l-18 4-19 7-17 9-12 9-12 11-11 12-7 11-6 11-2 2h-6v-2l7-3 7-14 11-14 5-5 5-6 13-10 15-9 13-6 20-7z" fill="#D6C5FA"/>
<path transform="translate(555,865)" d="m0 0 9 2 11 2h8v3l-2 6-4 8-4-1-11-11v-2h-2z" fill="#0A0A0A"/>
<path transform="translate(1517,1245)" d="m0 0h2v5l-12 11-36 36-6 3 1-4z" fill="#8870DF"/>
<path transform="translate(362,1224)" d="m0 0 7 6v3l4 1 5-2 13-1h13l30-2 18-1 15 4 16 3 5 1v1l-10-1-12-2-24-2-32 1-22 2-7 1h-12l-7-10z" fill="#7659E8"/>
<path transform="translate(1628,855)" d="m0 0h1l1 165 1 29-2 14-2-4z" fill="#BEA4F9"/>
<path transform="translate(1576,482)" d="m0 0h7l-1 3-15 3-10 4-9 7-6 7-5 10-3 13-2 1-1-5 3-12 6-12 10-10 14-7z" fill="#161616"/>
<path transform="translate(1625,1166)" d="m0 0h1l1 126 1 12-5-5v-40l1-22v-46z" fill="#D6C5FA"/>
<path transform="translate(819,427)" d="m0 0h8l-1 3-16 5-6 3-5 2v2l-6 5-7 11-3 11-4-2 2-9 6-11 9-10 10-6z" fill="#0F0D14"/>
<path transform="translate(1210,307)" d="m0 0 3 1-1 1v23h-2v106l3 1h-45v-1h41l-1-3v-127z" fill="#C6B3F8"/>
<path transform="translate(1121,1623)" d="m0 0h34v1h-32v39l1 26 2 6 4 4v2l-4-2-4-4-2-4v-67z" fill="#795DE9"/>
<path transform="translate(523,601)" d="m0 0h5v2h2l11 11v2l3 1 1 3-13 11-3 4h-7l1-4 12-10-1-5-11-11z" fill="#B099FA"/>
<path transform="translate(1622,464)" d="m0 0 11 1 10 5 6 5 6 12 1 10-2 9-3 6-2 2-3-1 4-8 1-4v-11l-4-10-4-5-12-6-11-1-2-1v-2z" fill="#151515"/>
<path transform="translate(337,431)" d="m0 0h34l5 3 1 2v10l-5 3h-34l-5-2-2-2v-8l2-4zm10 2-11 2-3 2v6l3 3 3 1h33l3-3v-8l-2-2-6-1z" fill="#D6C5FA"/>
<path transform="translate(1117,663)" d="m0 0h66v1l7 1v1l-20 1h-46l-13-2v-1z" fill="#7659E8"/>
<path transform="translate(702,1091)" d="m0 0h97l34 1 2 2v9h-1l-2-7-2-1h-21l-7-1h-89l-11-2z" fill="#1E1E1E"/>
<path transform="translate(729,1069)" d="m0 0h3l-1 19h-21l2-4 12-11z" fill="#201E24"/>
<path transform="translate(921,813)" d="m0 0h7l12 4 10 6 11 10 7 11 1 5-4-1-5-8-6-8-14-10-15-5-9-2v-1z" fill="#1B1B1B"/>
<path transform="translate(351,609)" d="m0 0h68l9 1v1h-48l-28 1-4 1v7l1 2 4 1h75l1-11h1v12l-1 1h-79l-4-3v-9z" fill="#D6C5FA"/>
<path transform="translate(830,428)" d="m0 0h10l15 6 10 9 6 8 4 9-1 4v-3l-3 1-6-11-8-9-10-6-9-4-7-2z" fill="#181524"/>
<path transform="translate(448,395)" d="m0 0h39l6 2 1 5-1 8-4 2-26 1-17-1-4-4v-9l3-3zm0 2-4 3v7l5 3 38 1 4-2 1-3v-8l-4-1z" fill="#D6C5FA"/>
<path transform="translate(856,513)" d="m0 0 3 1v2h-2v2l-11 6-15 3-14-1-12-4-5-3v-5l15 7 5 1h17l10-4z" fill="#0A0A0A"/>
<path transform="translate(1188,1481)" d="m0 0h30l154 1v1l-169 1h-23l-2-2z" fill="#1E1E1E"/>
<path transform="translate(544,601)" d="m0 0 6 2 5 4 5 6 5 4-1 4-12 12h-2v2h-7l1-4 4-1 2-4 7-5-1-5-6-7-3-1-3-4z" fill="#AF98FA"/>
<path transform="translate(1594,1269)" d="m0 0h1l1 9v77l5 1 2 2-6-1-2-1v-17h-2v-60z" fill="#A68EF9"/>
<path transform="translate(1103,1765)" d="m0 0 4 2 6 2 65 1v3h-63l-8-3z" fill="#EEE9FE"/>
<path transform="translate(1557,408)" d="m0 0h7l12 4 10 9 4 5 5 11 1 13h-3l-3-14-6-11-7-7-10-5-10-2z" fill="#1B1B1B"/>
<path transform="translate(796,462)" d="m0 0h1v6l-1 2v12l2 7-1 6-4 1-4-4-1-12 1-9 2-5z" fill="#F6F4FB"/>
<path transform="translate(1125,1620)" d="m0 0h52l2 1v2l-60 1-16-1-1-2z" fill="#624BBB"/>
<path transform="translate(1212,308)" d="m0 0 5 1v30l-1 8-4 1-1-18v-21z" fill="#1E1E1E"/>
<path transform="translate(416,326)" d="m0 0h20l7 2 1 2v10l-3 3-23 1-7-2-2-2v-9l2-4zm-1 3-3 1-1 8 2 2 6 1h21l2-2v-9l-2-1z" fill="#D6C5FA"/>
<path transform="translate(1641,1313)" d="m0 0 3 1 63 63-3 2-4-4v-2l-4-2v-2l-4-2-7-8-44-44z" fill="#7558E7"/>
<path transform="translate(415,431)" d="m0 0h24l15 1 3 2h-43l-8 1v8l3 3 21 1h21l6-2 2-8h1v8l-3 3-4 1h-43l-5-2-2-4 1-8 1-2z" fill="#D6C5FA"/>
<path transform="translate(1293,368)" d="m0 0 3 1v49l-4 1v-50z" fill="#1E1E1E"/>
<path transform="translate(1553,521)" d="m0 0 3 1 5 12 4 6 7 6 11 4 9 1v3l-5 1-13-3-10-6-6-8-4-9z" fill="#1B1B1B"/>
<path transform="translate(1629,1055)" d="m0 0h1v93h-1l-2-15-1-6v-16l2-19v-14z" fill="#D6C5FA"/>
<path transform="translate(1163,1341)" d="m0 0 4 2 11 10 11 9 13 13 10 13h-3l-7-6-7-8-26-26-2-1v-2h-2z" fill="#FEFEFE"/>
<path transform="translate(829,425)" d="m0 0 8 2v1l-6 1 2 2h-3l1 11v27l-4 1-1-4v-23l1-12-3-1 3-3-3-1z" fill="#6E55CF"/>
<path transform="translate(895,1227)" d="m0 0h1v5h67v1h-10v2h-27l-10-1-4 1h-17l-1 4z" fill="#7659E8"/>
<path transform="translate(1204,871)" d="m0 0 5 2 3 3 6 2v2l8 1 6 2 18 1 3 3-6 1h-13l-14-4-10-5-6-4z" fill="#2D2840"/>
<path transform="translate(914,813)" d="m0 0h7l-3 4-13 4-4 3h-2l-2 4-6 8-3 5h-3l1-6 6-10 6-5 9-5z" fill="#1F1E22"/>
<path transform="translate(1767,1193)" d="m0 0 5 2 12 9 16 16 10 14 8 16-1 2-3-5-2-1-4-11-11-13-5-5-6-5-4-6-11-8z" fill="#FEFEFE"/>
<path transform="translate(476,1006)" d="m0 0h5l-2 4-10 5-6 7-5 12-2 10h-2l-1-8 4-13 8-11 7-4z" fill="#1D1D1D"/>
<path transform="translate(542,789)" d="m0 0h10l6 3v2h2l1 6-1 2h-3l-5-5-3-2h-7l-5 6h-2v2h-2v-6l5-6h4z" fill="#DED5FA"/>
<path transform="translate(1503,464)" d="m0 0h4l-1 3-9 6-6 7-2 4-1 7v14h-3l-1-2v-17l4-10 6-7z" fill="#1A1A1A"/>
<path transform="translate(1324,437)" d="m0 0h30v4l-1 1h-57v-1l29-1z" fill="#6950C9"/>
<path transform="translate(1027,635)" d="m0 0h15v1l-13 2-5 5-14 13-7 8-6 5v-3l6-9 6-5 6-7 6-5 4-4z" fill="#7E62E9"/>
<path transform="translate(314,501)" d="m0 0h22l5 2 1 10-1 3-6 2h-20l-4-2-1-2v-9zm3 2-3 1-1 2v9l3 1h21l3-2v-7l-3-4z" fill="#D6C5FA"/>
<path transform="translate(966,1232)" d="m0 0h84l5 1v1l-43 1h-13l-8-1h-17l-8-1z" fill="#7659E8"/>
<path transform="translate(1179,1780)" d="m0 0h1l1 8v48l3 3v2l83 1v1h-87l-1-1z" fill="#BEA5F9"/>
<path transform="translate(825,642)" d="m0 0 6 2 3 4v5l-5 4h-6l-4-5 1-6z" fill="#1E1E1F"/>
<path transform="translate(831,679)" d="m0 0 7 1 2 3v7l-5 4-6-1-3-3v-6z" fill="#1C1C1C"/>
<path transform="translate(1077,1408)" d="m0 0h1l1 62v33l-2 4-1-3v-33z" fill="#8C72F0"/>
<path transform="translate(523,395)" d="m0 0h29l3 1-1 2h-34l-2 1v9l4 1 16 1 16-1 1-10h1v11l-4 2h-31l-5-3v-11l2-2z" fill="#D6C5FA"/>
<path transform="translate(888,1267)" d="m0 0 1 3-2 1h-77l-2-2 4-1 76 1z" fill="#6B51CF"/>
<path transform="translate(846,444)" d="m0 0 6 2 5 5 6 12v3h-2l-1 4-6-12-5-6-7-4 1-3z" fill="#F5F3FC"/>
<path transform="translate(344,1062)" d="m0 0h1l-1 12-5 20-5 23-2-4v-13l4-9 1-5 3-5 1-12z" fill="#604AB6"/>
<path transform="translate(1690,420)" d="m0 0h13l6 2v2h-18l-15 3-16 7h-2l2-4 12-6z" fill="#1E1E1E"/>
<path transform="translate(281,1292)" d="m0 0h123l11 1v1h-7l2 8-5-5-2-3-122-1z" fill="#7357E3"/>
<path transform="translate(642,1683)" d="m0 0h3l8 22 1 8-4 1 2 6 1 6-2 2-1-6h-2l-2-11 3-2-3-13-3-7z" fill="#2D293D"/>
<path transform="translate(1078,1503)" d="m0 0h1v64h-3v-63z" fill="#A992FB"/>
<path transform="translate(1700,508)" d="m0 0 12 3 10 5 5 4 6 8 3 5-1 3-3-1-7-11-9-7-10-4-7-2z" fill="#1D1D1D"/>
<path transform="translate(1130,1700)" d="m0 0 12 1 19 1 13 3v1h-34l-10-3z" fill="#A087F5"/>
<path transform="translate(1e3 1243)" d="m0 0 8 1 5 1v1h-118v-1l98-1z" fill="#D6C5FA"/>
<path transform="translate(1019,543)" d="m0 0h70v1l-35 1v1l-34 1-3 2h-3v2l-5 4-2-1 7-7 2-3z" fill="#7257DF"/>
<path transform="translate(587,836)" d="m0 0 13 1 4 2-1 5-2 2-9-1-8-5v-3z" fill="#EDE8FE"/>
<path transform="translate(210,572)" d="m0 0h13l5 2 1 1v11l-5 3h-11l-7-2-2-9 3-5zm10 2-10 1-3 3v6l3 3h15l3-4-1-8z" fill="#D6C5FA"/>
<path transform="translate(1098,1245)" d="m0 0h2l2 13-1 36h-1l-2-15-1-3v-27z" fill="#D4C3FA"/>
<path transform="translate(1050,1232)" d="m0 0h36l2 1v2h-71v-1l33-1z" fill="#9B82F3"/>
<path transform="translate(721,1027)" d="m0 0 3 2 3 17 3 8 3 4v6h-2l-8-13-3-18v-5z" fill="#1D1C22"/>
<path transform="translate(432,1245)" d="m0 0h14l13 1v1l-35 1-32 3-12 2 1 7-2-1-1-6 5-3 17-3z" fill="#7659E8"/>
<path transform="translate(890,1713)" d="m0 0 4 1-11 3-41 5-17 3h-7l-3-2 70-9z" fill="#B49CF9"/>
<path transform="translate(1098,1619)" d="m0 0 5 1v3l-2 1-1 3-1 69-2-1v-73l-1-2z" fill="#7659E8"/>
<path transform="translate(1429,1335)" d="m0 0 1 3-15 16-8 8-2 4v-3l-4-2 5-4 13-13 5-6z" fill="#8C74E0"/>
<path transform="translate(566,488)" d="m0 0h43l2 1v2h-45z" fill="#7659E8"/>
<path transform="translate(1524,1159)" d="m0 0h3v23l-1 30h-2z" fill="#AA91F8"/>
<path transform="translate(942,359)" d="m0 0 2 1 1 14-9 12-5 2-5-1 2-1v-2l8-5 4-8z" fill="#17151E"/>
<path transform="translate(294,432)" d="m0 0h18l5 3 1 7-2 5-1 1h-22l-4-3v-9zm0 2-3 3v7l2 2 4 1h16l3-3v-7l-3-3z" fill="#D6C5FA"/>
<path transform="translate(566,456)" d="m0 0h40l4 2-7 1h-37z" fill="#7659E8"/>
<path transform="translate(1614,522)" d="m0 0h2l-1 5-2 4v10l5 7 3 3v1h-5l-6-7-2-4v-8l4-9z" fill="#0C0C0C"/>
<path transform="translate(1295,367)" d="m0 0 3 1 1 28v11l-1 11-4 2 1-2z" fill="#604AB6"/>
<path transform="translate(568,869)" d="m0 0h15v3l-2 6-2 2-1-2-9-1-2-1-1-4 2-2z" fill="#1E1E1F"/>
<path transform="translate(1622,464)" d="m0 0 11 1 10 5 6 5 1 3-3 2-4-5-12-6-11-1-2-1v-2z" fill="#1D1D1D"/>
<path transform="translate(1079,1331)" d="m0 0h1v70h-1l-1-9-2 1v-22l2-1z" fill="#B59CF9"/>
<path transform="translate(1717,451)" d="m0 0 5 1 9 10 4 10 1 12-3-1-2-10-6-12-5-6-3-3z" fill="#1D1D1D"/>
<path transform="translate(292,609)" d="m0 0h17l6 3 1 1v9l-4 3h-20l-3-1-1-2v-10zm1 2-4 2v8l4 3h18l3-3v-8l-5-2z" fill="#D6C5FA"/>
<path transform="translate(864,257)" d="m0 0h13v2l2 2-16 2-11 6v-5l10-6z" fill="#141121"/>
<path transform="translate(306,315)" d="m0 0 5 1 1 3-2 3h-2l-1 3-10 6-1-4 4-6z" fill="#D5C4F9"/>
<path transform="translate(983,577)" d="m0 0h3v2l-3 2-2 5-7 7-8 7-4 4v-3l1-4 6-5 2-3h2l2-4h2l2-4z" fill="#7D62E4"/>
<path transform="translate(1639,1313)" d="m0 0h2l7 8 40 40-3 1-5-6-5-3-4-6-32-32z" fill="#B39AFA"/>
<path transform="translate(1416,661)" d="m0 0 2 1-1 1-9 1 2 1h8l3-3 2 1-4 4h-25l-7-1 4-3 2-1z" fill="#A78FF8"/>
<path transform="translate(1714,546)" d="m0 0 2 2-4 8-7 6-6 2h-14l-1-3h11l9-3 7-7z" fill="#1E1E1E"/>
<path transform="translate(800,495)" d="m0 0 5 5 2 3h-3l5 6h-2v2l3 1-2 1 2 6-6-2-4-4h2l-1-10z" fill="#B39BF5"/>
<path transform="translate(1116,1196)" d="m0 0h2l3 6v65h-1l-1-44-2-18-1-3h2z" fill="#B89EF9"/>
<path transform="translate(479,886)" d="m0 0m-8 1h8v1l-18 4-19 7-17 9-4 3-2-1 6-5 17-9 23-8z" fill="#D6C5FA"/>
<path transform="translate(1078,1337)" d="m0 0h1v33l-3 1v-33z" fill="#A28AF8"/>
<path transform="translate(1504,444)" d="m0 0h14l10 3 5 3v2l-7-1-5-2-18-2z" fill="#0F0E10"/>
<path transform="translate(1448,1317)" d="m0 0 2 1-7 8-11 11h-4-3l15-15 2 3 2-4h2z" fill="#AF9CF5"/>
<path transform="translate(1103,1760)" d="m0 0 7 6 5 2 61 1v1h-63l-7-3-3-2z" fill="#9078E9"/>
<path transform="translate(513,1628)" d="m0 0 1 4-11 44h-1v-8l3-9 3-18 3-9z" fill="#A08AE4"/>
<path transform="translate(877,257)" d="m0 0 6 2 8 6 3 4-1 3-3 1-3-4v-2l-10-5-1-3z" fill="#252134"/>
<path transform="translate(1484,1278)" d="m0 0 2 4-15 15-6 3 1-4z" fill="#9A87E0"/>
<path transform="translate(1060,392)" d="m0 0h4l1 5v14h-5z" fill="#1E1E1E"/>
<path transform="translate(528,1596)" d="m0 0h2v4h-2l-1 13-4 16-2 4-1 9h-2l1-12 2-7 3-11z" fill="#332C4E"/>
<path transform="translate(873,496)" d="m0 0 1 2-10 14-3 3-4-2 6-8 4-6 4-2z" fill="#272239"/>
<path transform="translate(1526,1123)" d="m0 0h1v32l-3 1v-30z" fill="#9980F5"/>
<path transform="translate(1576,482)" d="m0 0h7l-1 3-15 3-8 3-3-1 5-5 7-2z" fill="#101010"/>
<path transform="translate(1128,1314)" d="m0 0 8 4 14 11 7 6-3 1-10-8-10-7-4-3v-2h-2z" fill="#FEFEFE"/>
<path transform="translate(1240,544)" d="m0 0h12v3l3-1 1-2 3 1 1 1 9 1v1h-36l1-2h7z" fill="#AE96F9"/>
<path transform="translate(1410,465)" d="m0 0v3l-4 1-1-1h-19l-37-1v-1z" fill="#BCA2F9"/>
<path transform="translate(1568,545)" d="m0 0 15 5 9 1v3l-5 1-13-3-5-3z" fill="#090909"/>
<path transform="translate(1708,1685)" d="m0 0 2 1-20 20-3-3 13-13h3z" fill="#B09AF2"/>
<path transform="translate(1625,1127)" d="m0 0h2l2 10 1 15-4-2-1-2z" fill="#C1A9F9"/>
<path transform="translate(1210,307)" d="m0 0 3 1-1 1v23h-2v12h-1l-1-36z" fill="#AC97EE"/>
<path transform="translate(858,1759)" d="m0 0h5l-2 2-6 2h-15l-9-1v-2z" fill="#8F77E0"/>
<path transform="translate(1632,1300)" d="m0 0 7 6 22 22-1 3-13-13-3-2-3-5-9-9z" fill="#C1ABF9"/>
<path transform="translate(918,816)" d="m0 0h7l4 2-9 3-8 1-7 1v-3z" fill="#7358DD"/>
<path transform="translate(856,513)" d="m0 0 3 1v2h-2v2l-11 6-6 1 1-4 8-4z" fill="#0C0B0F"/>
<path transform="translate(664,1172)" d="m0 0 4 2 12 10 1 3-5-1-10-8-2-2z" fill="#F16A73"/>
<path transform="translate(788,448)" d="m0 0h3l-2 5-4 8-2 8-4-2 2-9 4-8z" fill="#100F13"/>
<path transform="translate(936,346)" d="m0 0 6 5 3 6v14h-1l-1-11-2 2-4-9-2-2z" fill="#0B0A0F"/>
<path transform="translate(1077,1607)" d="m0 0 3 1 2 8 5 2 10 3 1 2h-7l-9-3-4-5z" fill="#6950C8"/>
<path transform="translate(859,439)" d="m0 0 4 2 7 8 5 11-1 4v-3l-3 1-4-8 1-3-7-9-2-1z" fill="#0F0E13"/>
<path transform="translate(1758,1630)" d="m0 0 2 1-1 4-7 8-7 7-2-3 9-9z" fill="#B7A1F9"/>
<path transform="translate(367,1228)" d="m0 0h8l11 2 1 2-12 2-3 1-4-2z" fill="#FC696B"/>
<path transform="translate(799,435)" d="m0 0 2 1v4h-2v2l-6 5-2 2-5 1 2-4 7-8z" fill="#131219"/>
<path transform="translate(830,428)" d="m0 0h10l12 5-3 2 2 1-6-1-7-3-7-2z" fill="#0F0D13"/>
<path transform="translate(680,1173)" d="m0 0 5 1 10 8 2 5-2 1-11-9-4-5z" fill="#F7686D"/>
<path transform="translate(1629,1301)" d="m0 0 5 2 10 10-2 1-5-1-3-3-3-1z" fill="#9E85F4"/>
<path transform="translate(895,1227)" d="m0 0h1v5h20l-1 3h-20l-1 4z" fill="#7256E0"/>
<path transform="translate(915,340)" d="m0 0h11l10 5-1 5-15-7v-1l-5-1z" fill="#161322"/>
<path transform="translate(632,1011)" d="m0 0 4 1v19l-3 2z" fill="#101010"/>
<path transform="translate(894,847)" d="m0 0 1 4v11l2 11 2 8-3-3-3-7-1-5v-9z" fill="#C9B3F9"/>
<path transform="translate(1742,1648)" d="m0 0h2l-1 4-9 10-4 1-4 2 6-7z" fill="#927BE1"/>
<path transform="translate(1522,1231)" d="m0 0 2 1 1 5 2-2-1 8-7 6-1-5 3-1z" fill="#BDA7F9"/>
<path transform="translate(542,794)" d="m0 0h7l7 5v4h-3l-4-5-9 1v-3z" fill="#624CB8"/>
<path transform="translate(790,504)" d="m0 0 5 5 5 4 1 4-2 2-7-6-4-6 1-2z" fill="#14121D"/>
<path transform="translate(880,848)" d="m0 0h1l1 19 2 10-4 1-1-1v-19z" fill="#BAA3F4"/>
<path transform="translate(1652,491)" d="m0 0h1l2 8-1 7-3 6-2 2-3-1 4-8z" fill="#1C1C1C"/>
<path transform="translate(1731,1661)" d="m0 0h2l-2 4-13 13-2-2 4-4 3-5z" fill="#8872D3"/>
<path transform="translate(1032,732)" d="m0 0 2 1-7 8-3 5-3 3-6 2 2-4z" fill="#6950C8"/>
<path transform="translate(1118,1590)" d="m0 0h1v30l-16 1v-3l15 1-1-28z" fill="#D2C0FA"/>
<path transform="translate(296,338)" d="m0 0 5 2 7 5 1 3-5 1-7-7z" fill="#BEA4F9"/>
<path transform="translate(1069,1250)" d="m0 0 6 5 2 5-1 5-3-4-4-6-7-3v-1h6z" fill="#BAA7F4"/>
<path transform="translate(1517,1245)" d="m0 0h2v5l-7 6-7 2 6-7z" fill="#977FEB"/>
<path transform="translate(1611,534)" d="m0 0h1l2 9 4 5 3 3v1h-5l-6-7z" fill="#101010"/>
<path transform="translate(1121,1676)" d="m0 0h1l3 17 5 6v2l-4-2-4-4-1-3z" fill="#6850C4"/>
<path transform="translate(827,444)" d="m0 0h1l1 5v19l1 2h-3l-1-4z" fill="#604AB6"/>
<path transform="translate(1665,1836)" d="m0 0h1v6l-1 1h-36v-1l32-1z" fill="#C3ABF9"/>
<path transform="translate(778,1654)" d="m0 0 2 4 5 20-1 4-3-6v-9h-2l-1-4z" fill="#917ADD"/>
<path transform="translate(1411,1352)" d="m0 0 4 2-8 8-2 4v-3l-4-2 5-4z" fill="#B39CF7"/>
<path transform="translate(870,464)" d="m0 0 2 3v20l-2 8-3-3v-2h2v-6l1-2z" fill="#F7F5FD"/>
<path transform="translate(912,341)" d="m0 0h12l-1 3-9 2-6 2 2-6z" fill="#09080D"/>
<path transform="translate(1063,919)" d="m0 0h1l2 8h6l5-7 2 1-5 9h-9l-2-2z" fill="#D6C5FA"/>
<path transform="translate(505,1664)" d="m0 0 2 1v7l-3 11-3 1 2-12z" fill="#1E1D1F"/>
<path transform="translate(637,1686)" d="m0 0 3 4 4 10 3 9-2 2-2-5v-3h-2v-6h-2z" fill="#262332"/>
<path transform="translate(383,947)" d="m0 0 1 2-7 13-2 2h-6v-2l7-3 5-10z" fill="#D1BFFA"/>
<path transform="translate(1090,1237)" d="m0 0 5 1 4 5-1 6-3-3-5-6z" fill="#9983E6"/>
<path transform="translate(547,575)" d="m0 0 3 1v10l-1 1h-8v-2l5-1v-7z" fill="#A992FB"/>
<path transform="translate(784,491)" d="m0 0 2 3 5 10-3 3-3-4-2-10z" fill="#211D2F"/>
<path transform="translate(916,824)" d="m0 0h11l10 4-3 1-9-2h-9l-6 1 4-3z" fill="#D6C5FA"/>
<path transform="translate(860,259)" d="m0 0h2l1 4-11 6v-5z" fill="#19171F"/>
<path transform="translate(1179,1836)" d="m0 0 3 1 2 4 22 1v1h-26l-1-1z" fill="#C9B3F9"/>
<path transform="translate(893,286)" d="m0 0 2 3v5l-4 6h-4l1-4 4-7z" fill="#191624"/>
<path transform="translate(519,1603)" d="m0 0 1 3-5 21h-1v-10l2-8h2l-1-4h2z" fill="#9882E0"/>
<path transform="translate(1062,775)" d="m0 0 1 2-3 5-8 7h-2l2-4z" fill="#624BBB"/>
<path transform="translate(961,600)" d="m0 0 2 1-3 6-4 2v2l-5 1 2-5z" fill="#7159CF"/>
<path transform="translate(1661,1329)" d="m0 0 7 6 9 9-3 1-13-13z" fill="#C6B2FA"/>
<path transform="translate(239,1289)" d="m0 0h6l2 1 25 1v1h-32z" fill="#CBB7F9"/>
<path transform="translate(908,343)" d="m0 0 2 1v2h-2l1 3-5 4h-4l2-5z" fill="#25203A"/>
<path transform="translate(642,1683)" d="m0 0h3l4 11v3l-4-2z" fill="#383059"/>
<path transform="translate(1204,871)" d="m0 0 5 2 6 5v2l-5-1-6-4z" fill="#14121B"/>
<path transform="translate(464,467)" d="m0 0 2 2v8l-1 1h-5l2-9z" fill="#A992FB"/>
<path transform="translate(1160,1770)" d="m0 0h18v3h-12l-6-2z" fill="#D6C6FA"/>
<path transform="translate(1179,1753)" d="m0 0h1l1 15-1 4v6h-1l-2-7-2-3 3-1z" fill="#BFA5F9"/>
<path transform="translate(522,575)" d="m0 0h1v9l6 1-1 2-8-1v-10z" fill="#A992FA"/>
<path transform="translate(1260,544)" d="m0 0h17l-1 3h-13z" fill="#9E86F7"/>
<path transform="translate(1407,531)" d="m0 0 7 1 6 4 1 5-7-6-6-1h-5v-2z" fill="#654DC2"/>
<path transform="translate(1688,1362)" d="m0 0 5 5 7 6 7 8h-3l-5-5v-2l-4-2-7-7z" fill="#C4AEF9"/>
<path transform="translate(1116,1196)" d="m0 0h2l3 6-1 7v14h-1l-2-18-1-3h2z" fill="#CCBAF9"/>
<path transform="translate(1258,880)" d="m0 0h5v3l-8 3-5-1 1-2 7-1z" fill="#13121A"/>
<path transform="translate(864,506)" d="m0 0h3l-2 5-4 4-4-2 4-5z" fill="#1F1C2B"/>
<path transform="translate(302,321)" d="m0 0h4l-2 4-5 5h-3l1-4z" fill="#BEA4F9"/>
<path transform="translate(526,1569)" d="m0 0h2l-1 9-3 12h-1v-9z" fill="#9C86E3"/>
<path transform="translate(245,1271)" d="m0 0h25v1l-20 2h-2v-2z" fill="#BEA4F9"/>
<path transform="translate(1072,769)" d="m0 0v3l-3 2 2-4zm-4 5m-1 1m-1 1m-2 1 2 1-2 1zm-1 2m-2 1 2 1-9 9-2 3-1-4z" fill="#D0C1FB"/>
<path transform="translate(1147,689)" d="m0 0 3 1 1 2-3 1-5 6-5 1v-2l7-6z" fill="#6951C9"/>
<path transform="translate(942,359)" d="m0 0 2 1 1 14-5-1 1-11z" fill="#201E27"/>
<path transform="translate(276,341)" d="m0 0h5l7 6-1 2-5-1v-2l-4-2z" fill="#BEA4F9"/>
<path transform="translate(1468,1297)" d="m0 0 2 1-7 7-6 3 1-4 7-6h2z" fill="#A18DE7"/>
<path transform="translate(1016,765)" d="m0 0v3l-3 3-3 1h-9l-2-3h9l6-2z" fill="#664FC0"/>
<path transform="translate(953,628)" d="m0 0v3l-4 4-3 1h-7l-4-2v-1h11l5-3z" fill="#634CBE"/>
<path transform="translate(1410,465)" d="m0 0v3l-4 1-1-1h-15l-1-2z" fill="#BEA8F9"/>
<path transform="translate(536,1532)" d="m0 0 1 4-4 17h-1v-9l3-11z" fill="#9781E0"/>
<path transform="translate(1077,1234)" d="m0 0h13l3 3h-3v2l-14-3z" fill="#CEBCFB"/>
<path transform="translate(1495,1269)" d="m0 0h2l-2 4-8 8-3-1 1-3 5-3z" fill="#7057D0"/>
<path transform="translate(587,780)" d="m0 0 2 1-16 16-2-1 8-8 4-5z" fill="#9E88E2"/>
<path transform="translate(1580,550)" d="m0 0 12 1v3l-5 1-6-1z" fill="#1E1E1E"/>
<path transform="translate(1389,1657)" d="m0 0 11 1v2h-18v-2z" fill="#3F346C"/>
<path transform="translate(1429,1335)" d="m0 0 1 3-7 8-3-2 2-4z" fill="#9881EF"/>
<path transform="translate(1484,1278)" d="m0 0 2 4-10 10-1-2 5-6 3-5z" fill="#8E78E3"/>
<path transform="translate(779,486)" d="m0 0 5 1v12l-3-4z" fill="#0C0A11"/>
<path transform="translate(553,435)" d="m0 0h2l1 10-1 1h-5l2-10z" fill="#AB94FA"/>
<path transform="translate(924,385)" d="m0 0 4 1-1 1 2 2-4 1h-11v-1l7-1-5-1v-1z" fill="#262331"/>
<path transform="translate(910,384)" d="m0 0 6 2 7 1-2 2h-10l-2-1z" fill="#0B0A10"/>
<path transform="translate(1103,1760)" d="m0 0 7 6 9 3v1l-10-1-6-4z" fill="#8269DF"/>
<path transform="translate(877,1747)" d="m0 0 3 1-10 8-4 1 1-3z" fill="#9980E7"/>
<path transform="translate(1178,1701)" d="m0 0h1v7l-13-1v-2l12-2z" fill="#B8A0F9"/>
<path transform="translate(1112,1192)" d="m0 0 4 3 3 5-1 3-8-8v-2z" fill="#7960D7"/>
<path transform="translate(352,1030)" d="m0 0h1l-1 11-2 7h-1v-9l2-8z" fill="#604AB6"/>
<path transform="translate(1117,663)" d="m0 0h11v2l-4 1h-8l-5-1v-1z" fill="#856AED"/>
<path transform="translate(1557,408)" d="m0 0h7l5 2-1 2-11-1z" fill="#0D0D0D"/>
<path transform="translate(1761,1431)" d="m0 0 2 4 1 4-3 10h-1v-12z" fill="#C6AFF9"/>
<path transform="translate(1674,1350)" d="m0 0 4 1 10 10-3 1-5-6-5-3z" fill="#BFAAFA"/>
<path transform="translate(859,441)" d="m0 0 4 2 6 8-1 2h-2l-6-9z" fill="#1E1D23"/>
<path transform="translate(1100,1611)" d="m0 0h1l1 9-7 1-5-1v-1h7v-4h2z" fill="#AE97FA"/>
<path transform="translate(528,1596)" d="m0 0h2v4h-2l-1 13-2 4-1-5z" fill="#39305C"/>
<path transform="translate(1526,1138)" d="m0 0h1v17l-3 1v-7z" fill="#AA94FA"/>
<path transform="translate(780,469)" d="m0 0 2 4 1 13-2 2-1-2z" fill="#191919"/>
<path transform="translate(633,1020)" d="m0 0 3 1v10l-3 2z" fill="#1E1E1E"/>
<path transform="translate(1214,877)" d="m0 0 4 1v2l4 1v2l3 1-8-1-4-3h2z" fill="#221D35"/>
<path transform="translate(846,514)" d="m0 0 3 3-3 3-9 1 3-2z" fill="#AF96F2"/>
<path transform="translate(1136,362)" d="m0 0h3l1 7-1 2h-3l-1-7z" fill="#1E1E1E"/>
<path transform="translate(655,1714)" d="m0 0 2 3 2 8-3 1-2-6z" fill="#2D2841"/>
<path transform="translate(1758,1630)" d="m0 0 2 1-1 4-2 3h-4l2-4z" fill="#AE96F9"/>
<path transform="translate(403,1292)" d="m0 0 12 1v1h-7l2 8-5-5z" fill="#7659E8"/>
<path transform="translate(970,672)" d="m0 0h2v3h-2l-2 4-2 7h-1v-8l2-4z" fill="#604AB7"/>
<path transform="translate(551,506)" d="m0 0h2v9h-6z" fill="#A992FA"/>
<path transform="translate(1484,494)" d="m0 0 1 3h2l1 2v6h-3l-1-2z" fill="#0E0E0E"/>
<path transform="translate(874,489)" d="m0 0h1l-1 7-6 4 1-5 1-3h3z" fill="#121118"/>
<path transform="translate(788,448)" d="m0 0h3l-2 5-3 3h-3l2-6z" fill="#0A0A0A"/>
<path transform="translate(893,271)" d="m0 0h2l1 2v8h-3l-2-9z" fill="#0C0B12"/>
<path transform="translate(539,1516)" d="m0 0h2l-1 8-2 8h-1v-9z" fill="#9882DF"/>
<path transform="translate(558,1482)" d="m0 0 4 2 1 4h-4l-3 1v-6z" fill="#D9CDF9"/>
<path transform="translate(1752,1423)" d="m0 0 7 6v5l-5-5-3-4z" fill="#7558E6"/>
<path transform="translate(1047,808)" d="m0 0 2 1-2 2-8 1-5-2v-1z" fill="#634CBE"/>
<path transform="translate(1576,482)" d="m0 0h7l-1 3h-11l-4 1-1-2z" fill="#1C1C1C"/>
<path transform="translate(509,1648)" d="m0 0 2 3-3 12h-2l2-11z" fill="#1E1E1E"/>
<path transform="translate(1433,1329)" d="m0 0 1 4-2 4h-4-3z" fill="#C0B0F9"/>
<path transform="translate(1448,1317)" d="m0 0 2 1-7 8-4 3 1-4h2l2-4h2z" fill="#C8B6FB"/>
<path transform="translate(1710,420)" d="m0 0 2 1v2l4 1 5 3-4 1-5-2-2-3z" fill="#CAB5F9"/>
<path transform="translate(551,398)" d="m0 0h3v10l-2 1-1-3z" fill="#A992FB"/>
<path transform="translate(1737,1653)" d="m0 0v3l-2 4-2 2-4 2h-3z" fill="#B099F5"/>
<path transform="translate(513,1628)" d="m0 0 1 4-3 12h-1v-11z" fill="#8D77D9"/>
<path transform="translate(1585,1376)" d="m0 0 8 5h10l-2 2h-9l-6-3z" fill="#B49DFA"/>
<path transform="translate(1629,1194)" d="m0 0h2v11h-2l-1-7z" fill="#AC94FA"/>
<path transform="translate(1151,875)" d="m0 0h14l4 2 1 3-4-1-3-2-12-1z" fill="#D7C1F4"/>
<path transform="translate(969,692)" d="m0 0 10 2 1-1h5l-1 2-3 1h-8l-4-2z" fill="#644DC0"/>
<path transform="translate(1611,534)" d="m0 0h1l2 9 1 3h-2l-1 2-2-5z" fill="#1B1B1B"/>
<path transform="translate(1614,522)" d="m0 0h2l-1 5-2 4h-2l-1-3 3-5z" fill="#121212"/>
<path transform="translate(1652,486)" d="m0 0 4 5v6l-2 2-2-8z" fill="#080808"/>
<path transform="translate(932,382)" d="m0 0 3 1-2 4-6 1-1-2h2v-2z" fill="#0C0B12"/>
<path transform="translate(901,352)" d="m0 0h3l-2 5-1 3h-2l-1-6z" fill="#151418"/>
<path transform="translate(1103,1765)" d="m0 0 4 2 10 4v1h-6l-6-4z" fill="#D2C3FB"/>
<path transform="translate(559,1486)" d="m0 0 4 2-1 4-4 1z" fill="#FEFEFE"/>
<path transform="translate(1698,1371)" d="m0 0 4 1 5 6-3 1-4-4v-2h-2z" fill="#7156DE"/>
<path transform="translate(800,495)" d="m0 0 5 5 2 3h-3v2l-3-1z" fill="#B59EF4"/>
<path transform="translate(1622,464)" d="m0 0h5v3l-7 1-2-1v-2z" fill="#0E0E0E"/>
<path transform="translate(913,1222)" d="m0 0 4 1z" fill="#F9F8FE"/>
</svg>
